<?xml version="1.0" encoding="UTF-8" standalone="no"?>
<svg width="50px" height="50px" viewBox="0 0 50 50" version="1.1" xmlns="http://www.w3.org/2000/svg" xmlns:xlink="http://www.w3.org/1999/xlink" xmlns:sketch="http://www.bohemiancoding.com/sketch/ns">
    <!-- Generator: Sketch 3.5.2 (25235) - http://www.bohemiancoding.com/sketch -->
    <title>fireside-logo-seal</title>
    <desc>Created with Sketch.</desc>
    <defs>
        <linearGradient x1="50%" y1="0%" x2="50%" y2="100%" id="linearGradient-1">
            <stop stop-color="#B20031" offset="0%"></stop>
            <stop stop-color="#660015" offset="100%"></stop>
        </linearGradient>
    </defs>
    <g id="Page-1" stroke="none" stroke-width="1" fill="none" fill-rule="evenodd" sketch:type="MSPage">
        <g id="fireside-logo-seal" sketch:type="MSLayerGroup">
            <path d="M1.05143149,25.1874233 C1.05143149,12.0673824 11.6872188,1.43149284 24.807362,1.43149284 C37.9274029,1.43149284 48.5632924,12.0673824 48.5632924,25.1874233 C48.5632924,38.3074642 37.9274029,48.943456 24.807362,48.943456 C11.6872188,48.943456 1.05143149,38.3074642 1.05143149,25.1874233" id="Fill-1" fill="url(#linearGradient-1)" sketch:type="MSShapeGroup"></path>
            <path d="M24.9996933,-0.00102249489 C11.203681,-0.00102249489 0.0197341513,11.1829243 0.0197341513,24.9789366 C0.0197341513,38.7749489 11.203681,49.9588957 24.9996933,49.9588957 C38.7958078,49.9588957 49.9796524,38.7749489 49.9796524,24.9789366 C49.9796524,11.1829243 38.7958078,-0.00102249489 24.9996933,-0.00102249489 L24.9996933,-0.00102249489 Z M24.9996933,48.0610429 C12.2518405,48.0610429 1.91758691,37.7267894 1.91758691,24.9789366 C1.91758691,12.2310838 12.2518405,1.89683027 24.9996933,1.89683027 C37.7476483,1.89683027 48.0819018,12.2310838 48.0819018,24.9789366 C48.0819018,37.7267894 37.7476483,48.0610429 24.9996933,48.0610429 L24.9996933,48.0610429 Z" id="Fill-2" fill="#FF5000" sketch:type="MSShapeGroup"></path>
            <path d="M32.5937628,20.752863 C32.5935583,20.7521472 32.5932515,20.7517382 32.5929448,20.7513292 C29.2617587,15.2733129 28.4707566,9.93251534 31.0634969,6.62658487 C31.2933538,6.33333333 31.5453988,6.06257669 31.8176892,5.81308793 C31.9669734,5.68895706 32.0802658,5.51891616 32.1317996,5.31646217 C32.2614519,4.80613497 31.9529652,4.28732106 31.4425358,4.15756646 C31.3206544,4.12658487 31.198364,4.12116564 31.0808793,4.13701431 C31.0793456,4.13394683 31.0780164,4.13087935 31.0763804,4.12770961 C25.0817996,4.96421268 17.0013292,14.0779141 15.7827198,24.0981595 C15.7724949,24.1825153 15.7789366,24.1261759 15.7791411,24.1261759 C15.1661554,28.8985685 17.9058282,33.6299591 22.6618609,34.8385481 C27.6005112,36.0937628 32.6216769,33.1075665 33.8767894,28.1687117 C34.549182,25.5231084 34.0038855,22.8539877 32.5937628,20.752863" id="Fill-3" fill="#FF5000" sketch:type="MSShapeGroup"></path>
            <path d="M32.743456,19.9439673 C32.1782209,18.156953 32.5170757,14.9680982 33.1139059,13.3794479 C33.2448875,13.0304703 33.4037832,12.6964213 33.5885481,12.3766871 C33.693456,12.2132924 33.7503067,12.0169734 33.7385481,11.8083845 C33.708589,11.2826176 33.25818,10.8806748 32.7325153,10.9106339 C32.606953,10.9178937 32.4886503,10.949591 32.3813906,11.0001022 C32.3788344,10.9974438 32.3767894,10.9947853 32.3743354,10.9924335 C31.5262781,11.4170757 30.6539877,12.0481595 29.9807771,12.6962168 C30.2390593,14.0242331 31.1742331,18.0998978 32.743456,19.9439673" id="Fill-4" fill="#FF5000" sketch:type="MSShapeGroup"></path>
            <path d="M28.9562372,25.2259714 C28.9560327,25.2255624 28.9559305,25.2252556 28.955726,25.2250511 C26.6288344,22.3461145 25.752863,19.3340491 26.95818,17.2123722 C27.0651329,17.0240286 27.1862986,16.8469325 27.3207566,16.6804703 C27.3952965,16.5964213 27.4461145,16.4889571 27.4591002,16.3679959 C27.4917178,16.0629857 27.2752556,15.7897751 26.9755624,15.7576687 C26.9039877,15.7501022 26.8342536,15.7571575 26.7689162,15.7760736 C26.7676892,15.7744376 26.7667689,15.7728016 26.7655419,15.7710634 C23.4338446,16.753681 19.5821063,22.6809816 19.693047,28.5576687 C19.6939673,28.6071575 19.693047,28.5741309 19.6932515,28.5741309 C19.7276074,31.3756646 21.6595092,33.8738241 24.452454,34.1732106 C27.3529652,34.4841513 29.9606339,32.3436605 30.2770961,29.392638 C30.4465235,27.8117587 29.9239264,26.3191207 28.9562372,25.2259714" id="Fill-5" fill="#F2C300" sketch:type="MSShapeGroup"></path>
            <path d="M4.66850716,38.6759714 C4.66860941,38.6759714 6.49233129,38.6759714 6.49212679,38.6761759 L7.59304703,38.6761759 C14.7308793,38.6761759 20.950818,40.2763804 24.2075665,42.6435583 C24.3686094,42.8172802 24.5980573,42.9266871 24.8534765,42.9266871 C25.1113497,42.9266871 25.342638,42.8152352 25.5038855,42.6387526 C28.7610429,40.2742331 34.9770961,38.6761759 42.1099182,38.6761759 C42.1099182,38.6761759 43.4703476,38.6761759 43.4702454,38.6759714 L43.9798569,38.6759714 C44.2493865,38.6759714 44.5507157,38.7084867 44.8075665,38.6097137 C44.9529652,38.5537832 45.057362,38.4285276 45.1632924,38.3196319 C45.2753579,38.2043967 45.3480573,38.0567485 45.4340491,37.9231084 C45.5035787,37.8150307 45.5878323,37.7200409 45.6840491,37.6353783 C45.7469325,37.5800613 45.842229,37.5320041 45.8936605,37.4675869 C46.0052147,37.3280164 46.0274029,37.0380368 46.057362,36.8609407 C46.1006135,36.6043967 46.1599182,36.3698364 46.2295501,36.1195297 C46.3109407,35.8266871 46.4054192,35.5466258 46.508589,35.2622699 C46.5333333,35.1941718 46.5377301,35.14182 46.5437628,35.0705521 C46.5542945,34.943865 46.5997955,34.8381391 46.6370143,34.7182004 C46.6809816,34.5763804 46.7271984,34.4315951 46.7665644,34.2884458 C46.7978528,34.1741309 46.7887526,34.0595092 46.7886503,33.9424335 C46.7886503,33.8562372 46.794683,33.7733129 46.74591,33.6974438 C46.7059305,33.6352761 46.5321063,33.555726 46.4899796,33.6608384 L46.4052147,33.6322086 C46.2470348,34.0269939 45.7893661,34.3124744 45.2492843,34.3124744 L41.9178937,34.3124744 L41.9179959,34.3142127 C32.5441718,34.3857873 26.2112474,40.6649284 25.0974438,41.852045 C25.0596115,41.9249489 24.9842536,41.9753579 24.8965235,41.9753579 C24.8402863,41.9753579 24.7895706,41.9542945 24.75,41.9205521 C24.742229,41.9179959 24.7342536,41.9133947 24.7259714,41.9043967 C23.7568507,40.8588957 17.3356851,34.3456033 7.76656442,34.3131902 L7.76656442,34.3124744 L4.749182,34.3124744 C4.22474438,34.3124744 3.77811861,34.043456 3.60777096,33.6664622 C3.56002045,33.5608384 3.32791411,33.5689162 3.32791411,33.45 L2.62014315,34.2152352 C3.79897751,35.207771 3.9396728,38.6759714 4.66850716,38.6759714" id="Fill-6" fill="#FF5000" sketch:type="MSShapeGroup"></path>
        </g>
    </g>
</svg>