<?xml version="1.0" encoding="UTF-8" standalone="no"?>
<svg width="250px" height="149px" viewBox="0 0 250 149" version="1.1" xmlns="http://www.w3.org/2000/svg" xmlns:xlink="http://www.w3.org/1999/xlink" xmlns:sketch="http://www.bohemiancoding.com/sketch/ns">
    <!-- Generator: Sketch 3.5.2 (25235) - http://www.bohemiancoding.com/sketch -->
    <title>fireside-company-logo</title>
    <desc>Created with Sketch.</desc>
    <defs>
        <linearGradient x1="50%" y1="-619.577592%" x2="50%" y2="50%" id="linearGradient-1">
            <stop stop-color="#FF5000" offset="0%"></stop>
            <stop stop-color="#B40032" offset="100%"></stop>
        </linearGradient>
    </defs>
    <g id="Page-1" stroke="none" stroke-width="1" fill="none" fill-rule="evenodd" sketch:type="MSPage">
        <g id="fireside-company-logo" sketch:type="MSLayerGroup">
            <path d="M250,63.7838679 C250,62.8955389 249.103498,62.1754677 247.998558,62.1754677 C247.601408,62.1754677 247.233842,62.2686428 246.922756,62.4292114 L246.920963,62.4283068 C210.887394,75.0110079 183.844848,57.2380952 164.617113,57.2380952 C142.823588,57.2380952 128.086882,68.9903625 125.507196,71.200782 C125.419339,71.3346646 125.245866,71.4291966 125.042808,71.4291966 C124.915056,71.4291966 124.798063,71.3893936 124.705723,71.3274277 L124.650588,71.2971232 C122.413815,69.3567304 107.556977,57.2380952 85.4281606,57.2380952 C66.1995292,57.2380952 39.1569829,75.0110079 3.12251781,62.4283068 L3.12162131,62.4292114 C2.80694897,62.2672859 2.43221097,62.171397 2.03012965,62.171397 C0.90950167,62.171397 0,62.9018712 0,63.8042217 C0,64.4555424 0.476491018,65.0173064 1.16231534,65.2787393 C9.19945923,68.4824228 21.3923399,70.5259414 35.0433818,70.5259414 C45.1873062,70.5259414 54.3952822,69.2477246 61.9541421,67.5031803 L61.9707274,67.4963957 C68.7070463,66.1141485 76.6554365,65.3194469 85.1928287,65.3194469 C101.631993,65.3194469 115.95586,68.2829559 123.453758,72.6658012 L123.457792,72.6658012 C123.828047,72.9882954 124.356535,73.1904762 124.944641,73.1904762 C125.539022,73.1904762 126.071993,72.9851293 126.442696,72.6572074 C133.944628,68.2788851 148.260427,65.3194469 164.687488,65.3194469 C173.223984,65.3194469 181.173271,66.1141485 187.90959,67.4963957 L187.92752,67.5031803 C195.485035,69.2477246 204.693011,70.5259414 214.837383,70.5259414 C228.452117,70.5259414 240.616758,68.4919213 248.653005,65.3031638 C249.436548,65.086057 250,64.4881084 250,63.7838679" id="Book" fill="#FF5000" sketch:type="MSShapeGroup"></path>
            <g id="Flame" transform="translate(108.571429, 0.095238)" sketch:type="MSShapeGroup">
                <path d="M29.9437978,29.4733661 L29.9420733,29.4694849 C24.0624731,19.7979774 22.6660788,10.3679665 27.2428375,4.53151118 C27.6480894,4.01272473 28.0930041,3.53447522 28.5737017,3.09503766 C28.8371154,2.8755345 29.0371546,2.57538873 29.1281207,2.21745627 C29.3570449,1.31615646 28.8125416,0.39976312 27.911503,0.171203839 C27.6963747,0.117298348 27.4808152,0.106948494 27.273447,0.134548105 L27.2652557,0.118160836 C16.6843034,1.59560253 2.42116402,17.6870384 0.269880462,35.3796829 C0.251342348,35.5284621 0.263413678,35.4288448 0.263413678,35.4288448 C-0.818263766,43.8562136 4.01759749,52.2089772 12.4119146,54.3440658 C21.130002,56.5602284 29.9933764,51.2874089 32.2084656,42.5667942 C33.3953361,37.8959913 32.4326475,33.1820639 29.9437978,29.4733661" id="Fill-15" fill="#FF5000"></path>
                <path d="M30.2076426,28.0455175 C29.2100333,24.8896744 29.8084264,19.2593537 30.86165,16.454112 C31.0931609,15.8378644 31.3733882,15.248354 31.6997452,14.6834244 C31.8846953,14.394491 31.9842838,14.0490646 31.9644523,13.6799198 C31.9114247,12.7514517 31.1168724,12.0424866 30.1882422,12.0946672 C29.9670782,12.1080357 29.7584166,12.1632349 29.5687243,12.2533649 L29.5562218,12.2387026 C28.0593768,12.9894983 26.5198511,14.1034014 25.3312561,15.2474915 C25.78738,17.5921647 27.4377033,24.7883321 30.2076426,28.0455175" id="Fill-16" fill="#FF5000"></path>
                <path d="M23.5231432,37.3707362 L23.5218499,37.3685799 C19.4145797,32.2863703 17.8685871,26.9674077 19.9965902,23.2211917 C20.1849892,22.8891339 20.3988242,22.5756195 20.6359396,22.2823737 C20.7674309,22.134457 20.8571037,21.9442784 20.879953,21.7308127 C20.938154,21.192189 20.5557515,20.7100583 20.0271997,20.6531341 C19.9004507,20.6397655 19.7771507,20.6518404 19.6620419,20.6854774 L19.6555752,20.6772838 C13.7755438,22.4121781 6.97636684,32.8776057 7.17209485,43.2533345 C7.1733882,43.3413083 7.17209485,43.2817966 7.17252597,43.2817966 C7.2324515,48.2285957 10.6430335,52.6402211 15.5728787,53.1680637 C20.6928473,53.7170372 25.2959044,49.9389091 25.8542034,44.7277575 C26.1534,41.9363156 25.2303743,39.3005527 23.5231432,37.3707362" id="Fill-17" fill="#F2C300"></path>
            </g>
            <g id="Type" transform="translate(5.952381, 84.857143)" sketch:type="MSShapeGroup">
                <path d="M14.7683634,54.5077794 L8.20000495,54.5077794 L8.20000495,55.274098 L8.65945648,55.274098 C8.97829296,55.274098 9.06756717,55.4525019 9.06756717,55.6698601 L9.06756717,62.5385758 C9.06756717,62.7556066 8.97829296,62.9343379 8.65945648,62.9343379 L8.20000495,62.9343379 L8.20000495,63.7000018 L11.0950402,63.7000018 L11.0950402,62.9343379 L10.2153785,62.9343379 L10.2153785,59.7165199 L13.6202251,59.7165199 L13.6202251,58.8231908 L10.2153785,58.8231908 L10.2153785,55.4017632 L13.6588124,55.4017632 L13.9904024,56.6653214 L14.7683634,56.6653214 L14.7683634,54.5077794" id="Fill-1" fill="#B40032"></path>
                <path d="M26.0424212,54.5077794 L23.1601395,54.5077794 L23.1601395,55.274098 L23.618937,55.274098 C23.9377735,55.274098 24.0273747,55.4525019 24.0273747,55.6698601 L24.0273747,62.5385758 C24.0273747,62.7556066 23.9377735,62.9343379 23.618937,62.9343379 L23.1601395,62.9343379 L23.1601395,63.7000018 L26.0424212,63.7000018 L26.0424212,62.9343379 L25.5832967,62.9343379 C25.2899671,62.9343379 25.1876124,62.7935788 25.175513,62.602081 L25.175513,55.6060275 C25.1876124,55.4269689 25.2899671,55.274098 25.5832967,55.274098 L26.0424212,55.274098 L26.0424212,54.5077794" id="Fill-2" fill="#B40032"></path>
                <path d="M38.7831268,54.3549085 C36.3341357,54.3549085 34.5869118,55.7209262 34.5869118,59.0912878 C34.5869118,62.4744158 36.3341357,63.8528727 38.7831268,63.8528727 C39.5862678,63.8528727 40.5813646,63.7130957 41.537874,63.4446714 L41.537874,61.7977902 L40.8743671,61.7977902 C40.5045168,62.5637815 40.2111872,62.9595436 38.8593206,62.9595436 C37.175864,62.9595436 35.786064,61.9889607 35.786064,59.1551204 C35.786064,56.3206254 37.1500301,55.2482376 38.6807722,55.2482376 C40.0074589,55.2482376 40.5045168,55.6439997 40.8743671,56.4103183 L41.537874,56.4103183 L41.537874,54.7634371 C40.5813646,54.4953402 39.5862678,54.3549085 38.7831268,54.3549085" id="Fill-3" fill="#B40032"></path>
                <path d="M57.7475205,54.5077794 L49.7762816,54.5077794 L49.7762816,57.0997105 L50.5542426,57.0997105 L50.8858325,55.4017632 L53.1945356,55.4017632 L53.1945356,62.5385758 C53.1945356,62.7556066 53.1049344,62.9343379 52.7860979,62.9343379 L52.3273004,62.9343379 L52.3273004,63.7000018 L55.2092551,63.7000018 L55.2092551,62.9343379 L54.7501306,62.9343379 C54.4571281,62.9343379 54.3547734,62.7935788 54.3423469,62.602081 L54.3423469,55.4017632 L56.6376426,55.4017632 L56.9692325,57.0997105 L57.7475205,57.0997105 L57.7475205,54.5077794" id="Fill-4" fill="#B40032"></path>
                <path d="M68.9064702,54.5077794 L66.0238614,54.5077794 L66.0238614,55.274098 L66.482986,55.274098 C66.8018224,55.274098 66.8910966,55.4525019 66.8910966,55.6698601 L66.8910966,62.5385758 C66.8910966,62.7556066 66.8018224,62.9343379 66.482986,62.9343379 L66.0238614,62.9343379 L66.0238614,63.7000018 L68.9064702,63.7000018 L68.9064702,62.9343379 L68.4473457,62.9343379 C68.1536891,62.9343379 68.0519884,62.7935788 68.038908,62.602081 L68.038908,55.6060275 C68.0519884,55.4269689 68.1536891,55.274098 68.4473457,55.274098 L68.9064702,55.274098 L68.9064702,54.5077794" id="Fill-5" fill="#B40032"></path>
                <path d="M81.595835,62.9595436 C80.039913,62.9595436 78.6370325,61.9761941 78.6370325,59.1040543 C78.6370325,56.2315871 80.039913,55.2354711 81.595835,55.2354711 C83.151757,55.2354711 84.5549645,56.2315871 84.5549645,59.1040543 C84.5549645,61.9761941 83.151757,62.9595436 81.595835,62.9595436 M81.595835,54.3549085 C79.1344174,54.3549085 77.4382073,56.0014623 77.4382073,59.1040543 C77.4382073,62.2063189 79.1344174,63.8528727 81.595835,63.8528727 C84.0572526,63.8528727 85.7534626,62.2063189 85.7534626,59.1040543 C85.7534626,56.0014623 84.0572526,54.3549085 81.595835,54.3549085" id="Fill-6" fill="#B40032"></path>
                <path d="M103.085741,54.5077794 L100.279653,54.5077794 L100.279653,55.274098 L101.146888,55.274098 L101.146888,62.0148211 L96.4536148,54.5077794 L94.2855268,54.5077794 L94.2855268,55.274098 L94.7443243,55.274098 C95.0634878,55.274098 95.152762,55.4525019 95.152762,55.6698601 L95.152762,62.5385758 C95.152762,62.7556066 95.0634878,62.9343379 94.7443243,62.9343379 L94.2855268,62.9343379 L94.2855268,63.7000018 L97.1040412,63.7000018 L97.1040412,62.9343379 L96.236479,62.9343379 L96.236479,56.3333919 L100.879065,63.7000018 L102.218178,63.7000018 L102.218178,55.6698601 C102.218178,55.4525019 102.30778,55.274098 102.626616,55.274098 L103.085741,55.274098 L103.085741,54.5077794" id="Fill-7" fill="#B40032"></path>
                <path d="M126.296709,54.3549085 C123.848045,54.3549085 122.100167,55.7209262 122.100167,59.0912878 C122.100167,62.4744158 123.848045,63.8528727 126.296709,63.8528727 C127.09985,63.8528727 128.095274,63.7130957 129.051456,63.4446714 L129.051456,61.7977902 L128.388276,61.7977902 C128.018099,62.5637815 127.725096,62.9595436 126.37323,62.9595436 C124.689773,62.9595436 123.299319,61.9889607 123.299319,59.1551204 C123.299319,56.3206254 124.663939,55.2482376 126.194681,55.2482376 C127.521041,55.2482376 128.018099,55.6439997 128.388276,56.4103183 L129.051456,56.4103183 L129.051456,54.7634371 C128.095274,54.4953402 127.09985,54.3549085 126.296709,54.3549085" id="Fill-8" fill="#B40032"></path>
                <path d="M141.715641,62.9595436 C140.159719,62.9595436 138.756839,61.9761941 138.756839,59.1040543 C138.756839,56.2315871 140.159719,55.2354711 141.715641,55.2354711 C143.271563,55.2354711 144.674771,56.2315871 144.674771,59.1040543 C144.674771,61.9761941 143.271563,62.9595436 141.715641,62.9595436 M141.715641,54.3549085 C139.254223,54.3549085 137.557686,56.0014623 137.557686,59.1040543 C137.557686,62.2063189 139.254223,63.8528727 141.715641,63.8528727 C144.177059,63.8528727 145.873269,62.2063189 145.873269,59.1040543 C145.873269,56.0014623 144.177059,54.3549085 141.715641,54.3549085" id="Fill-9" fill="#B40032"></path>
                <path d="M165.628704,54.5077794 L163.167286,54.5077794 L160.055442,62.5254819 L157.007366,54.5077794 L154.405333,54.5077794 L154.405333,55.274098 L154.864457,55.274098 C155.183294,55.274098 155.272568,55.4525019 155.272568,55.6698601 L155.272568,62.5385758 C155.272568,62.7556066 155.183294,62.9343379 154.864457,62.9343379 L154.405333,62.9343379 L154.405333,63.7000018 L157.223847,63.7000018 L157.223847,62.9343379 L156.356612,62.9343379 L156.356612,56.0525284 L159.289908,63.7000018 L160.616267,63.7000018 L163.613657,56.0273227 L163.613657,62.9343379 L162.746422,62.9343379 L162.746422,63.7000018 L165.628704,63.7000018 L165.628704,62.9343379 L165.169579,62.9343379 C164.850743,62.9343379 164.761469,62.7556066 164.761469,62.5385758 L164.761469,55.6698601 C164.761469,55.4525019 164.850743,55.274098 165.169579,55.274098 L165.628704,55.274098 L165.628704,54.5077794" id="Fill-10" fill="#B40032"></path>
                <path d="M176.264435,59.2827856 L176.264435,55.4017632 L177.922711,55.4017632 C179.40244,55.4017632 179.950511,56.3081862 179.950511,57.316414 C179.950511,58.31253 179.529647,59.2827856 177.948218,59.2827856 L176.264435,59.2827856 M178.369083,54.5077794 L174.249715,54.5077794 L174.249715,55.274098 L174.70884,55.274098 C175.027676,55.274098 175.116623,55.4525019 175.116623,55.6698601 L175.116623,62.5385758 C175.116623,62.7556066 175.027676,62.9343379 174.70884,62.9343379 L174.249715,62.9343379 L174.249715,63.7000018 L177.13167,63.7000018 L177.13167,62.9343379 L176.264435,62.9343379 L176.264435,60.1761147 L178.190534,60.1761147 C180.166993,60.1761147 181.149664,58.7593582 181.149664,57.2653479 C181.149664,56.0397619 180.358949,54.5077794 178.369083,54.5077794" id="Fill-11" fill="#B40032"></path>
                <path d="M191.505145,59.3976843 L192.818425,55.274098 L192.958713,55.274098 L194.221632,59.3976843 L191.505145,59.3976843 M193.826275,54.5077794 L190.548309,54.5077794 L190.36976,55.274098 L191.785394,55.274098 L189.298797,62.7808123 C189.272963,62.870178 189.170935,62.9343379 189.068908,62.9343379 L188.393301,62.9343379 L188.393301,63.7000018 L191.428625,63.7000018 L191.428625,62.9343379 L190.446608,62.9343379 L191.275256,60.2916681 L194.501881,60.2916681 L195.305676,62.9343379 L194.298153,62.9343379 L194.298153,63.7000018 L197.435504,63.7000018 L197.435504,62.9343379 L196.887105,62.9343379 C196.68305,62.9343379 196.619282,62.8574114 196.581022,62.7297462 L193.826275,54.5077794" id="Fill-12" fill="#B40032"></path>
                <path d="M214.117028,54.5077794 L211.311267,54.5077794 L211.311267,55.274098 L212.178503,55.274098 L212.178503,62.0148211 L207.484903,54.5077794 L205.316488,54.5077794 L205.316488,55.274098 L205.776266,55.274098 C206.095103,55.274098 206.18405,55.4525019 206.18405,55.6698601 L206.18405,62.5385758 C206.18405,62.7556066 206.095103,62.9343379 205.776266,62.9343379 L205.316488,62.9343379 L205.316488,63.7000018 L208.135329,63.7000018 L208.135329,62.9343379 L207.268421,62.9343379 L207.268421,56.3333919 L211.91068,63.7000018 L213.25012,63.7000018 L213.25012,55.6698601 C213.25012,55.4525019 213.339067,55.274098 213.657904,55.274098 L214.117028,55.274098 L214.117028,54.5077794" id="Fill-13" fill="#B40032"></path>
                <path d="M230.977101,54.5077794 L227.941778,54.5077794 L227.941778,55.274098 L228.911041,55.274098 L226.513391,59.270019 L224.089906,55.274098 L225.07225,55.274098 L225.07225,54.5077794 L221.934572,54.5077794 L221.934572,55.274098 L222.533984,55.274098 C222.789053,55.274098 222.878328,55.4017632 222.980355,55.5546341 L225.875718,60.1505816 L225.875718,62.5385758 C225.875718,62.7556066 225.786443,62.9343379 225.467607,62.9343379 L225.008155,62.9343379 L225.008155,63.7000018 L227.890764,63.7000018 L227.890764,62.9343379 L227.43164,62.9343379 C227.13831,62.9343379 227.023529,62.7935788 227.023529,62.602081 L227.023529,60.1505816 L229.880304,55.5546341 C229.982658,55.4017632 230.071606,55.274098 230.326675,55.274098 L230.977101,55.274098 L230.977101,54.5077794" id="Fill-14" fill="#B40032"></path>
                <path d="M16.3017216,22.5862394 L8.24840269,22.5862394 L8.24840269,38.9381887 L11.9609673,38.9381887 L11.9609673,42.8264127 L-0.0338244473,42.8264127 L-0.0338244473,38.9381887 L3.56428607,38.9381887 L3.56428607,3.83320213 L-0.0338244473,3.83320213 L-0.0338244473,-0.055021875 L26.7539988,-0.055021875 L26.7539988,10.5225318 L22.870407,10.5225318 L22.870407,3.83320213 L8.24840269,3.83320213 L8.24840269,18.6986701 L16.3017216,18.6986701 L16.3017216,14.6389164 L20.1856404,14.6389164 L20.1856404,26.6459931 L16.3017216,26.6459931 L16.3017216,22.5862394" id="Fill-19" fill="url(#linearGradient-1)"></path>
                <path d="M42.4613552,38.9381887 L46.1739199,38.9381887 L46.1739199,42.8264127 L34.1794551,42.8264127 L34.1794551,38.9381887 L37.7778927,38.9381887 L37.7778927,3.83320213 L34.1794551,3.83320213 L34.1794551,-0.055021875 L46.1739199,-0.055021875 L46.1739199,3.83320213 L42.4613552,3.83320213 L42.4613552,38.9381887" id="Fill-20" fill="url(#linearGradient-1)"></path>
                <path d="M86.7838767,38.9381887 L86.7838767,42.8264127 L75.4748286,42.8264127 L75.4748286,38.9381887 L78.5588766,38.9381887 L68.7916891,23.2150724 L62.7373931,26.9320941 L62.7373931,38.9381887 L66.4502848,38.9381887 L66.4502848,42.8264127 L54.455493,42.8264127 L54.455493,38.9381887 L58.0539305,38.9381887 L58.0539305,3.83320213 L54.455493,3.83320213 L54.455493,-0.055021875 L74.846312,-0.055021875 C77.3597245,-0.055021875 79.0536455,0.431087962 79.92971,1.40265294 C80.8051205,2.37454527 81.2436433,4.271192 81.2436433,7.0916111 L81.2436433,10.6364484 C81.2436433,12.0859396 81.1095685,13.2287069 80.8437079,14.0673691 C80.5768663,14.9063587 80.1013912,15.6592561 79.4156475,16.3254066 C78.7305578,16.9931938 77.8162329,17.6694921 76.6739808,18.3549561 C75.5317287,19.0414021 74.0840476,19.9183639 72.3332265,20.9855141 L83.5850476,38.9381887 L86.7838767,38.9381887 L86.7838767,38.9381887 Z M62.7373931,22.3570967 L77.0735892,13.4958218 L77.0735892,3.83320213 L62.7373931,3.83320213 L62.7373931,22.3570967 L62.7373931,22.3570967 Z" id="Fill-21" fill="url(#linearGradient-1)"></path>
                <path d="M111.57235,14.6389164 L111.57235,26.6459931 L107.688431,26.6459931 L107.688431,22.5862394 L99.6347853,22.5862394 L99.6347853,38.9381887 L114.25679,38.9381887 L114.25679,32.248859 L118.140381,32.248859 L118.140381,42.8264127 L91.3528852,42.8264127 L91.3528852,38.9381887 L94.9513227,38.9381887 L94.9513227,3.83320213 L91.3528852,3.83320213 L91.3528852,-0.055021875 L118.140381,-0.055021875 L118.140381,10.5225318 L114.25679,10.5225318 L114.25679,3.83320213 L99.6347853,3.83320213 L99.6347853,18.6986701 L107.688431,18.6986701 L107.688431,14.6389164 L111.57235,14.6389164" id="Fill-22" fill="url(#linearGradient-1)"></path>
                <path d="M143.157763,21.8431624 C143.919046,22.3773922 144.632913,22.8435339 145.300017,23.2435516 C145.965486,23.6435692 146.546259,24.0727207 147.041682,24.5300241 C148.031546,25.4452854 148.526969,26.5697213 148.526969,27.9036591 L148.526969,37.6235644 C148.526969,39.338861 147.917092,40.6534853 146.698973,41.5684193 C145.670848,42.4077363 144.319309,42.8264127 142.644028,42.8264127 L124.423259,42.8264127 L124.423259,32.248859 L128.535759,32.248859 L128.535759,38.9381887 L143.957307,38.9381887 L143.957307,27.7897424 L128.992921,18.5837714 C127.659367,17.822363 126.565513,17.0314934 125.708742,16.2114899 C124.851644,15.3918138 124.423259,14.2775257 124.423259,12.8669888 L124.423259,5.66241544 C124.423259,3.41354367 124.956288,1.87043137 126.022673,1.03144179 C126.936344,0.307678259 128.516138,-0.055021875 130.763363,-0.055021875 L148.012907,-0.055021875 L148.012907,10.5225318 L143.900407,10.5225318 L143.900407,3.83320213 L128.992921,3.83320213 L128.992921,12.9809054 L143.157763,21.8431624" id="Fill-23" fill="url(#linearGradient-1)"></path>
                <path d="M164.804634,38.9381887 L168.517199,38.9381887 L168.517199,42.8264127 L156.523061,42.8264127 L156.523061,38.9381887 L160.121172,38.9381887 L160.121172,3.83320213 L156.523061,3.83320213 L156.523061,-0.055021875 L168.517199,-0.055021875 L168.517199,3.83320213 L164.804634,3.83320213 L164.804634,38.9381887" id="Fill-24" fill="url(#linearGradient-1)"></path>
                <path d="M196.675855,-0.055021875 C199.493062,-0.055021875 201.444995,0.564318066 202.53002,1.8026706 C203.615372,3.04233252 204.158212,4.91868376 204.158212,7.43467043 L204.158212,35.3370477 C204.158212,37.9662964 203.548662,39.8727635 202.330216,41.0538303 C201.110789,42.2362066 199.225893,42.8264127 196.675855,42.8264127 L176.513291,42.8264127 L176.513291,38.9381887 L180.111728,38.9381887 L180.111728,3.83320213 L176.513291,3.83320213 L176.513291,-0.055021875 L196.675855,-0.055021875 L196.675855,-0.055021875 Z M184.795518,38.9381887 L199.474422,38.9381887 L199.474422,3.83320213 L184.795518,3.83320213 L184.795518,38.9381887 Z" id="Fill-25" fill="url(#linearGradient-1)"></path>
                <path d="M231.516671,14.6389164 L231.516671,26.6459931 L227.632752,26.6459931 L227.632752,22.5862394 L219.579106,22.5862394 L219.579106,38.9381887 L234.201437,38.9381887 L234.201437,32.248859 L238.085029,32.248859 L238.085029,42.8264127 L211.297206,42.8264127 L211.297206,38.9381887 L214.89597,38.9381887 L214.89597,3.83320213 L211.297206,3.83320213 L211.297206,-0.055021875 L238.085029,-0.055021875 L238.085029,10.5225318 L234.201437,10.5225318 L234.201437,3.83320213 L219.579106,3.83320213 L219.579106,18.6986701 L227.632752,18.6986701 L227.632752,14.6389164 L231.516671,14.6389164" id="Fill-26" fill="url(#linearGradient-1)"></path>
            </g>
        </g>
    </g>
</svg>