<?xml version="1.0" encoding="UTF-8" standalone="no"?>
<svg width="480px" height="720px" viewBox="0 0 480 720" version="1.1" xmlns="http://www.w3.org/2000/svg" xmlns:xlink="http://www.w3.org/1999/xlink" xmlns:sketch="http://www.bohemiancoding.com/sketch/ns">
    <!-- Generator: Sketch 3.5.2 (25235) - http://www.bohemiancoding.com/sketch -->
    <title>Book Cover</title>
    <desc>Created with Sketch.</desc>
    <defs>
        <radialGradient cx="50%" cy="104.25608%" fx="50%" fy="104.25608%" r="104.25608%" id="radialGradient-1">
            <stop stop-color="#680016" offset="0%"></stop>
            <stop stop-color="#B20031" offset="100%"></stop>
        </radialGradient>
    </defs>
    <g id="Page-1" stroke="none" stroke-width="1" fill="none" fill-rule="evenodd" sketch:type="MSPage">
        <g id="Book-Cover" sketch:type="MSArtboardGroup">
            <g id="Group" sketch:type="MSLayerGroup">
                <path d="M0,-8.63426337e-15 L480,-8.63426337e-15 L479.999991,720 L0,720 L0,-8.63426337e-15 Z" id="Background-3" fill="url(#radialGradient-1)" sketch:type="MSShapeGroup"></path>
                <path d="M19.95,18.75 L460.35,704.25" id="Line" stroke="#FFFFFF" stroke-width="1.5" stroke-linecap="square" sketch:type="MSShapeGroup"></path>
                <path d="M460.35,19.05 L18.75,706.05" id="Line" stroke="#FFFFFF" stroke-width="1.5" stroke-linecap="square" sketch:type="MSShapeGroup"></path>
                <path d="M0,-8.63426337e-15 L480,-8.63426337e-15 L479.999991,720 L0,720 L0,-8.63426337e-15 Z" id="Background-3" fill-opacity="0.400000006" fill="url(#radialGradient-1)" sketch:type="MSShapeGroup"></path>
                <g id="fireside-magazine-logo" transform="translate(66.000000, 18.300000)" sketch:type="MSShapeGroup">
                    <path d="M8.61714286,-2.72137868e-13 L338.684687,-2.72137868e-13 L338.684681,167.577301 C338.684681,167.577301 320.957734,176.601497 298.515473,172.355397 C274.984501,167.903312 246.274024,162.047241 227.57309,161.78475 C209.09846,161.525435 173.650912,177.142709 173.650912,177.142709 C173.650912,177.142709 155.667483,163.359924 122.686577,163.359924 C89.7056721,163.359924 77.0124398,172.355397 52.7320224,172.355397 C38.1501726,172.355397 8.61714286,167.577301 8.61714286,167.577301 L8.61714286,-2.72137868e-13 Z" id="Background-3" fill="url(#radialGradient-1)"></path>
                    <path d="M348,165.82518 C348,164.667289 346.752069,163.728713 345.213993,163.728713 C344.66116,163.728713 344.149508,163.850162 343.716476,164.059455 L343.71398,164.058276 C293.555252,180.459176 255.912028,157.293103 229.147021,157.293103 C198.810435,157.293103 178.29694,172.611576 174.706017,175.492743 C174.58372,175.667252 174.342245,175.79047 174.059589,175.79047 C173.881759,175.79047 173.718903,175.738589 173.590367,175.65782 L173.513619,175.618319 C170.40003,173.089118 149.719312,157.293103 118.916,157.293103 C92.1497446,157.293103 54.5065203,180.459176 4.34654479,164.058276 L4.34529686,164.059455 C3.90727297,163.848393 3.38563767,163.723407 2.82594048,163.723407 C1.26602632,163.723407 0,164.675542 0,165.85171 C0,166.700672 0.663275497,167.432903 1.61794296,167.773667 C12.8056472,171.949503 29.7781372,174.613124 48.7803874,174.613124 C62.9007303,174.613124 75.7182329,172.947034 86.2401658,170.673111 L86.2632525,170.664268 C95.6402085,168.86258 106.704368,167.826727 118.588418,167.826727 C141.471734,167.826727 161.410557,171.689508 171.84763,177.40232 L171.853246,177.40232 C172.368642,177.822675 173.104297,178.086207 173.92294,178.086207 C174.750319,178.086207 175.492214,177.818548 176.008233,177.391119 C186.450923,171.684202 206.378514,167.826727 229.244984,167.826727 C241.127786,167.826727 252.193193,168.86258 261.570149,170.664268 L261.595107,170.673111 C272.115168,172.947034 284.932671,174.613124 299.053638,174.613124 C318.005347,174.613124 334.938527,171.961884 346.124983,167.805503 C347.215675,167.522516 348,166.743121 348,165.82518" id="Book" fill="#FF5000"></path>
                    <g id="Flame" transform="translate(151.131429, 82.810345)">
                        <path d="M41.6817665,38.4170083 L41.679366,38.4119493 C33.4949625,25.8056395 31.5511817,13.514108 37.9220299,5.90659043 C38.4861404,5.23037913 39.1054617,4.60700563 39.7745928,4.0342215 C40.1412647,3.74811049 40.4197192,3.356886 40.546344,2.89033955 C40.8650065,1.71554187 40.107058,0.521070549 38.8528122,0.223155348 C38.5533536,0.152892329 38.2532948,0.13940183 37.9646382,0.175376495 L37.953236,0.154016538 C23.2245503,2.07978536 3.37026032,23.0541397 0.375673604,46.1155867 C0.349868548,46.3095127 0.36667184,46.1796666 0.36667184,46.1796666 C-1.13902316,57.1643059 5.59249571,68.0517013 17.2773851,70.8346789 C29.4129627,73.7233322 41.75078,66.8504847 44.8341841,55.4836145 C46.4863078,49.3954645 45.1462453,43.251104 41.6817665,38.4170083" id="Fill-15" fill="#FF5000"></path>
                        <path d="M42.0490384,36.5558814 C40.6603664,32.4424032 41.4933296,25.1035714 42.9594168,21.4470839 C43.28168,20.6438371 43.6717564,19.8754407 44.1260454,19.1390843 C44.3834958,18.7624745 44.522123,18.3122291 44.4945176,17.8310679 C44.4207031,16.6208577 43.3146864,15.6967584 42.0220332,15.764773 C41.7141728,15.7821983 41.4237159,15.8541476 41.1596642,15.9716274 L41.1422608,15.9525158 C39.0586526,16.9311392 36.9156327,18.3830542 35.2611085,19.8743165 C35.8960329,22.9304768 38.193283,32.3103088 42.0490384,36.5558814" id="Fill-16" fill="#FF5000"></path>
                        <path d="M32.7442154,48.7108216 L32.742415,48.7080111 C27.0250949,42.0836137 24.8730733,35.150621 27.8352536,30.2676223 C28.097505,29.8348021 28.3951633,29.4261524 28.725228,29.0439215 C28.9082638,28.8511198 29.0330883,28.6032319 29.0648945,28.3249903 C29.1459104,27.6229222 28.6136061,26.9944898 27.877862,26.920292 C27.7014274,26.9028668 27.5297938,26.9186057 27.3695624,26.9624499 L27.3605606,26.9517699 C19.175557,29.2131149 9.71110265,42.8542584 9.98355603,56.3784843 C9.98535638,56.4931536 9.98355603,56.4155832 9.98415614,56.4155832 C10.0675725,62.8634799 14.8151026,68.6138054 21.6774471,69.3018209 C28.8044435,70.0173795 35.2118989,65.092785 35.9890511,58.3003184 C36.4055327,54.6618183 35.120681,51.2262377 32.7442154,48.7108216" id="Fill-17" fill="#F2C300"></path>
                    </g>
                    <g id="Type" transform="translate(7.892049, 192.899353)" fill="#FFFFFF">
                        <path d="M55.5513044,72.9294503 L51.1931225,83.4034942 L49.2645462,83.4034942 L44.998288,72.9636611 L44.998288,82.3579286 L46.2597352,82.3579286 L46.2597352,83.4034942 L42.1609418,83.4034942 L42.1609418,82.3579286 L42.828981,82.3579286 C43.2926948,82.3579286 43.4223891,82.1137495 43.4223891,81.8182543 L43.4223891,72.4410921 C43.4223891,72.1451693 43.2926948,71.9009902 42.828981,71.9009902 L42.1609418,71.9009902 L42.1609418,70.8554246 L45.9443734,70.8554246 L50.3767313,81.799866 L54.9023781,70.8554246 L58.4819394,70.8554246 L58.4819394,71.9009902 L57.8139002,71.9009902 C57.3506415,71.9009902 57.2204922,72.1451693 57.2204922,72.4410921 L57.2204922,81.8182543 C57.2204922,82.1137495 57.3506415,82.3579286 57.8139002,82.3579286 L58.4819394,82.3579286 L58.4819394,83.4034942 L54.2903122,83.4034942 L54.2903122,82.3579286 L55.5513044,82.3579286 L55.5513044,72.9294503" id="Fill-13"></path>
                        <path d="M89.5462153,82.3579286 L91.0115328,82.3579286 L89.8429194,78.7504067 L85.151173,78.7504067 L83.945244,82.3579286 L85.3732459,82.3579286 L85.3732459,83.4034942 L80.9595458,83.4034942 L80.9595458,82.3579286 L81.9424917,82.3579286 C82.0908437,82.3579286 82.2391957,82.2706913 82.2765113,82.1479603 L85.8929331,71.9009902 L83.8342075,71.9009902 L84.093596,70.8554246 L88.8604286,70.8554246 L92.8663882,82.0795388 C92.9219064,82.2535859 93.0142851,82.3579286 93.3109892,82.3579286 L94.1087226,82.3579286 L94.1087226,83.4034942 L89.5462153,83.4034942 L89.5462153,82.3579286 L89.5462153,82.3579286 Z M85.4847375,77.5307941 L89.4351789,77.5307941 L87.5989813,71.9009902 L87.3951111,71.9009902 L85.4847375,77.5307941 L85.4847375,77.5307941 Z" id="Fill-14"></path>
                        <path d="M127.269495,82.7064505 C125.692686,83.3508952 123.615757,83.6121797 122.447144,83.6121797 C118.88624,83.6121797 116.12307,81.7310169 116.12307,77.1121402 C116.12307,72.5107965 119.071908,70.6458839 122.632811,70.6458839 C123.80097,70.6458839 125.451955,70.8383192 126.843096,71.2043741 L126.843096,73.4520193 L125.878353,73.4520193 C125.340463,72.4064538 124.413036,71.8667794 122.484459,71.8667794 C120.036196,71.8667794 117.866889,73.2253732 117.866889,77.1993776 C117.866889,81.068184 120.110827,82.392567 122.559091,82.392567 C124.227823,82.392567 125.025557,82.0966441 125.600307,81.8695704 L125.600307,78.3834966 L122.224616,78.3834966 L122.224616,77.1638839 L127.269495,77.1638839 L127.269495,82.7064505" id="Fill-15"></path>
                        <path d="M158.519438,82.3579286 L159.985211,82.3579286 L158.816597,78.7504067 L154.124396,78.7504067 L152.918467,82.3579286 L154.346924,82.3579286 L154.346924,83.4034942 L149.932769,83.4034942 L149.932769,82.3579286 L150.915259,82.3579286 C151.064067,82.3579286 151.212419,82.2706913 151.249734,82.1479603 L154.865701,71.9009902 L152.80743,71.9009902 L153.067274,70.8554246 L157.833196,70.8554246 L161.839156,82.0795388 C161.894674,82.2535859 161.987508,82.3579286 162.284667,82.3579286 L163.081945,82.3579286 L163.081945,83.4034942 L158.519438,83.4034942 L158.519438,82.3579286 L158.519438,82.3579286 Z M154.45796,77.5307941 L158.408402,77.5307941 L156.571749,71.9009902 L156.368334,71.9009902 L154.45796,77.5307941 L154.45796,77.5307941 Z" id="Fill-16"></path>
                        <path d="M194.888437,72.1451693 L187.043527,82.1834539 L192.774648,82.1834539 C193.905491,82.1834539 194.202195,81.1028223 194.295028,80.3014359 L195.222911,80.3014359 L195.222911,83.4034942 L185.077635,83.4034942 L185.077635,82.0966441 L192.978518,72.0750373 L188.026928,72.0750373 C186.969351,72.0750373 186.468777,72.6326722 186.357285,74.0100819 L185.355682,74.0100819 L185.355682,70.8554246 L194.888437,70.8554246 L194.888437,72.1451693" id="Fill-17"></path>
                        <path d="M218.312128,82.3579286 L218.980168,82.3579286 C219.443881,82.3579286 219.573121,82.1137495 219.573121,81.8182543 L219.573121,72.4410921 C219.573121,72.1451693 219.443881,71.9009902 218.980168,71.9009902 L218.312128,71.9009902 L218.312128,70.8554246 L222.503756,70.8554246 L222.503756,71.9009902 L221.836171,71.9009902 C221.409773,71.9009902 221.261421,72.1096756 221.242763,72.3538547 L221.242763,81.905064 C221.261421,82.1667762 221.409773,82.3579286 221.836171,82.3579286 L222.503756,82.3579286 L222.503756,83.4034942 L218.312128,83.4034942 L218.312128,82.3579286" id="Fill-18"></path>
                        <path d="M255.775109,81.1028223 L255.775109,71.9009902 L254.514117,71.9009902 L254.514117,70.8554246 L258.594253,70.8554246 L258.594253,71.9009902 L257.926213,71.9009902 C257.462955,71.9009902 257.33235,72.1451693 257.33235,72.4410921 L257.33235,83.4034942 L255.385116,83.4034942 L248.634644,73.3476766 L248.634644,82.3579286 L249.895636,82.3579286 L249.895636,83.4034942 L245.796843,83.4034942 L245.796843,82.3579286 L246.464882,82.3579286 C246.929051,82.3579286 247.05829,82.1137495 247.05829,81.8182543 L247.05829,72.4410921 C247.05829,72.1451693 246.929051,71.9009902 246.464882,71.9009902 L245.796843,71.9009902 L245.796843,70.8554246 L248.950461,70.8554246 L255.775109,81.1028223" id="Fill-19"></path>
                        <path d="M291.346374,73.8005412 L290.215531,73.8005412 L289.73316,72.0750373 L284.725596,72.0750373 L284.725596,76.2581548 L289.677641,76.2581548 L289.677641,77.4781951 L284.725596,77.4781951 L284.725596,82.1834539 L289.73316,82.1834539 L290.215531,80.4583776 L291.346374,80.4583776 L291.346374,83.4034942 L281.795416,83.4034942 L281.795416,82.3579286 L282.463,82.3579286 C282.926714,82.3579286 283.055953,82.1137495 283.055953,81.8182543 L283.055953,72.4410921 C283.055953,72.1451693 282.926714,71.9009902 282.463,71.9009902 L281.795416,71.9009902 L281.795416,70.8554246 L291.346374,70.8554246 L291.346374,73.8005412" id="Fill-20"></path>
                        <path d="M23.0856616,29.8337448 L11.8754417,29.8337448 L11.8754417,51.1476649 L17.0433317,51.1476649 L17.0433317,56.2157638 L0.346581528,56.2157638 L0.346581528,51.1476649 L5.35515137,51.1476649 L5.35515137,5.3901307 L0.346581528,5.3901307 L0.346581528,0.322031832 L37.6352315,0.322031832 L37.6352315,14.1093259 L32.2292718,14.1093259 L32.2292718,5.3901307 L11.8754417,5.3901307 L11.8754417,24.7664993 L23.0856616,24.7664993 L23.0856616,19.4748204 L28.4920766,19.4748204 L28.4920766,35.1254237 L23.0856616,35.1254237 L23.0856616,29.8337448" id="Fill-19"></path>
                        <path d="M59.4998717,51.1476649 L64.6677616,51.1476649 L64.6677616,56.2157638 L47.9714667,56.2157638 L47.9714667,51.1476649 L52.9804917,51.1476649 L52.9804917,5.3901307 L47.9714667,5.3901307 L47.9714667,0.322031832 L64.6677616,0.322031832 L64.6677616,5.3901307 L59.4998717,5.3901307 L59.4998717,51.1476649" id="Fill-20"></path>
                        <path d="M121.196822,51.1476649 L121.196822,56.2157638 L105.454627,56.2157638 L105.454627,51.1476649 L109.747621,51.1476649 L96.1516963,30.6533961 L87.7241164,35.4983416 L87.7241164,51.1476649 L92.8924616,51.1476649 L92.8924616,56.2157638 L76.1957114,56.2157638 L76.1957114,51.1476649 L81.2047365,51.1476649 L81.2047365,5.3901307 L76.1957114,5.3901307 L76.1957114,0.322031832 L104.579731,0.322031832 C108.078402,0.322031832 110.43634,0.955650861 111.655821,2.22203556 C112.874393,3.48884694 113.484817,5.96102785 113.484817,9.63729826 L113.484817,14.2578104 C113.484817,16.1471471 113.298184,17.6366852 112.928107,18.729838 C112.556663,19.8234175 111.894802,20.8047803 110.940246,21.673073 C109.986602,22.5434992 108.713861,23.425019 107.123846,24.3184858 C105.533831,25.2132327 103.518659,26.356307 101.081517,27.7472821 L116.744051,51.1476649 L121.196822,51.1476649 L121.196822,51.1476649 Z M87.7241164,29.5350692 L107.680101,17.9848556 L107.680101,5.3901307 L87.7241164,5.3901307 L87.7241164,29.5350692 L87.7241164,29.5350692 Z" id="Fill-21"></path>
                        <path d="M155.702376,19.4748204 L155.702376,35.1254237 L150.295961,35.1254237 L150.295961,29.8337448 L139.085286,29.8337448 L139.085286,51.1476649 L159.439116,51.1476649 L159.439116,42.4284697 L164.845076,42.4284697 L164.845076,56.2157638 L127.556881,56.2157638 L127.556881,51.1476649 L132.565906,51.1476649 L132.565906,5.3901307 L127.556881,5.3901307 L127.556881,0.322031832 L164.845076,0.322031832 L164.845076,14.1093259 L159.439116,14.1093259 L159.439116,5.3901307 L139.085286,5.3901307 L139.085286,24.7664993 L150.295961,24.7664993 L150.295961,19.4748204 L155.702376,19.4748204" id="Fill-22"></path>
                        <path d="M199.669271,28.8651824 C200.728978,29.5615233 201.72268,30.1691149 202.651289,30.6905172 C203.577622,31.2119195 204.386058,31.7712963 205.075686,32.3673676 C206.453578,33.5603634 207.143206,35.0260074 207.143206,36.7647263 L207.143206,49.4341201 C207.143206,51.6699206 206.294258,53.3834654 204.598636,54.5760345 C203.167486,55.6700407 201.286143,56.2157638 198.954151,56.2157638 L173.590841,56.2157638 L173.590841,42.4284697 L179.315441,42.4284697 L179.315441,51.1476649 L200.782236,51.1476649 L200.782236,36.6162418 L179.951811,24.6167348 C178.095504,23.6242783 176.572859,22.5934207 175.380234,21.5245886 C174.187154,20.4561832 173.590841,19.0037662 173.590841,17.1652043 L173.590841,7.77441564 C173.590841,4.84312761 174.332818,2.83176054 175.817226,1.73818103 C177.089056,0.794792697 179.288129,0.322031832 182.416266,0.322031832 L206.427631,0.322031832 L206.427631,14.1093259 L200.703031,14.1093259 L200.703031,5.3901307 L179.951811,5.3901307 L179.951811,17.3136888 L199.669271,28.8651824" id="Fill-23"></path>
                        <path d="M229.801716,51.1476649 L234.969606,51.1476649 L234.969606,56.2157638 L218.273766,56.2157638 L218.273766,51.1476649 L223.282336,51.1476649 L223.282336,5.3901307 L218.273766,5.3901307 L218.273766,0.322031832 L234.969606,0.322031832 L234.969606,5.3901307 L229.801716,5.3901307 L229.801716,51.1476649" id="Fill-24"></path>
                        <path d="M274.166456,0.322031832 C278.088007,0.322031832 280.805098,1.12930941 282.315453,2.74343789 C283.826263,4.35927308 284.581896,6.80499986 284.581896,10.0844584 L284.581896,46.4537639 C284.581896,49.8808535 283.733403,52.3658348 282.037326,53.9052944 C280.339884,55.4464607 277.716109,56.2157638 274.166456,56.2157638 L246.100166,56.2157638 L246.100166,51.1476649 L251.109191,51.1476649 L251.109191,5.3901307 L246.100166,5.3901307 L246.100166,0.322031832 L274.166456,0.322031832 L274.166456,0.322031832 Z M257.629026,51.1476649 L278.062061,51.1476649 L278.062061,5.3901307 L257.629026,5.3901307 L257.629026,51.1476649 Z" id="Fill-25"></path>
                        <path d="M322.664871,19.4748204 L322.664871,35.1254237 L317.258456,35.1254237 L317.258456,29.8337448 L306.047781,29.8337448 L306.047781,51.1476649 L326.402066,51.1476649 L326.402066,42.4284697 L331.808026,42.4284697 L331.808026,56.2157638 L294.519376,56.2157638 L294.519376,51.1476649 L299.528856,51.1476649 L299.528856,5.3901307 L294.519376,5.3901307 L294.519376,0.322031832 L331.808026,0.322031832 L331.808026,14.1093259 L326.402066,14.1093259 L326.402066,5.3901307 L306.047781,5.3901307 L306.047781,24.7664993 L317.258456,24.7664993 L317.258456,19.4748204 L322.664871,19.4748204" id="Fill-26"></path>
                    </g>
                </g>
                <path d="M15,15 L465,15 L464.999991,708 L15,708 L15,15 Z" id="Background-3" stroke="#FFFFFF" stroke-width="6.3" sketch:type="MSShapeGroup"></path>
                <path d="M148.632,68.6 L159.6048,68.6 L159.6048,66.0944 L155.6304,66.0944 L155.6304,40.736 L159.6048,40.736 L159.6048,38.2304 L148.632,38.2304 L148.632,40.736 L152.6064,40.736 L152.6064,66.0944 L148.632,66.0944 L148.632,68.6 Z M164.4864,60.1328 L164.4864,63.0272 C164.4864,67.1744 169.6704,69.1184 174.0336,69.1184 C179.6496,69.1184 183.9264,65.9216 183.9264,60.5648 C183.9264,54.992 179.5632,53.3072 175.1568,51.6656 C171.4848,50.24 168.2016,49.0736 168.2016,45.4016 C168.2016,42.1616 170.88,40.4768 174.336,40.4768 C177.0576,40.4768 180.2112,41.5136 180.2112,43.4576 L180.2112,45.704 L183.1056,45.704 L183.1056,42.464 C183.1056,39.3968 178.656,37.712 174.336,37.712 C169.368,37.712 165.0912,40.304 165.0912,45.6176 C165.0912,50.9312 169.2384,52.5296 173.2128,54.0416 C177.144,55.5104 180.816,56.8928 180.816,60.8672 C180.816,64.4096 177.9648,66.3536 174.0336,66.3536 C170.5344,66.3536 167.3808,64.8848 167.3808,62.336 L167.3808,60.1328 L164.4864,60.1328 Z M188.9376,60.1328 L188.9376,63.0272 C188.9376,67.1744 194.1216,69.1184 198.4848,69.1184 C204.1008,69.1184 208.3776,65.9216 208.3776,60.5648 C208.3776,54.992 204.0144,53.3072 199.608,51.6656 C195.936,50.24 192.6528,49.0736 192.6528,45.4016 C192.6528,42.1616 195.3312,40.4768 198.7872,40.4768 C201.5088,40.4768 204.6624,41.5136 204.6624,43.4576 L204.6624,45.704 L207.5568,45.704 L207.5568,42.464 C207.5568,39.3968 203.1072,37.712 198.7872,37.712 C193.8192,37.712 189.5424,40.304 189.5424,45.6176 C189.5424,50.9312 193.6896,52.5296 197.664,54.0416 C201.5952,55.5104 205.2672,56.8928 205.2672,60.8672 C205.2672,64.4096 202.416,66.3536 198.4848,66.3536 C194.9856,66.3536 191.832,64.8848 191.832,62.336 L191.832,60.1328 L188.9376,60.1328 Z M216.24,57.4112 C216.24,60.2624 216.8016,62.6384 218.0976,64.5392 C220.0416,67.4768 223.6704,69.1184 227.904,69.1184 C232.0944,69.1184 235.6368,67.52 237.624,64.5824 C238.8768,62.768 239.568,60.2192 239.568,57.4112 L239.568,40.736 L243.5424,40.736 L243.5424,38.2304 L232.5696,38.2304 L232.5696,40.736 L236.544,40.736 L236.544,57.2816 C236.544,59.4848 236.0688,61.3424 235.2048,62.8112 C233.8656,65.1008 231.144,66.3536 227.904,66.3536 C224.6208,66.3536 222.0288,65.144 220.6032,62.9408 C219.696,61.5152 219.264,59.5712 219.264,57.368 L219.264,40.736 L223.2384,40.736 L223.2384,38.2304 L212.2656,38.2304 L212.2656,40.736 L216.24,40.736 L216.24,57.4112 Z M247.3008,68.6 L269.5488,68.6 L269.5488,62.0768 L266.8272,62.0768 L266.8272,66.008 L254.2992,66.008 L254.2992,54.6032 L265.7904,54.6032 L265.7904,52.0112 L254.2992,52.0112 L254.2992,40.8224 L266.0064,40.8224 L266.0064,44.5376 L268.7712,44.5376 L268.7712,38.2304 L247.3008,38.2304 L247.3008,40.736 L251.2752,40.736 L251.2752,66.0944 L247.3008,66.0944 L247.3008,68.6 Z M286.0512,44.9696 L288.816,44.9696 L288.816,40.8224 L298.968,40.8224 C299.5296,40.8224 300.3936,40.736 300.3936,40.736 L300.3936,40.8224 C300.3936,40.8224 299.7888,41.2976 299.3568,41.7728 L291.1488,51.4928 L291.9264,53.3072 C292.0128,53.3072 292.8768,53.2208 293.8272,53.2208 C297.7584,53.2208 301.3008,55.5104 301.3008,59.7008 C301.3008,63.632 297.9744,66.3536 294.3456,66.3536 C289.68,66.3536 286.5696,62.768 286.5696,62.768 L284.7552,64.9712 C284.7552,64.9712 288.4272,69.1184 294.3888,69.1184 C300.1776,69.1184 304.4112,64.7984 304.4112,59.6144 C304.4112,53.048 298.7952,50.9312 295.0368,50.7584 L304.0224,40.3472 L304.0224,38.2304 L286.0512,38.2304 L286.0512,44.9696 Z M320.352,69.1184 C328.2576,69.1184 330.8496,62.2064 330.8496,53.3936 C330.8496,44.6672 328.2576,37.712 320.352,37.712 C312.4464,37.712 309.8976,44.6672 309.8976,53.3936 C309.8976,62.2064 312.4464,69.1184 320.352,69.1184 L320.352,69.1184 Z M320.352,66.3536 C314.6064,66.3536 313.008,60.6944 313.008,53.3936 C313.008,46.136 314.6064,40.4768 320.352,40.4768 C326.1408,40.4768 327.7392,46.136 327.7392,53.3936 C327.7392,60.6944 326.1408,66.3536 320.352,66.3536 L320.352,66.3536 Z" id="ISSUE-30" fill="#FFFFFF" sketch:type="MSShapeGroup"></path>
            </g>
        </g>
    </g>
</svg>