<?xml version="1.0" encoding="UTF-8" standalone="no"?>
<svg width="250px" height="250px" viewBox="0 0 250 250" version="1.1" xmlns="http://www.w3.org/2000/svg" xmlns:xlink="http://www.w3.org/1999/xlink" xmlns:sketch="http://www.bohemiancoding.com/sketch/ns">
    <!-- Generator: Sketch 3.5.2 (25235) - http://www.bohemiancoding.com/sketch -->
    <title>avatar</title>
    <desc>Created with Sketch.</desc>
    <defs>
        <radialGradient cx="50%" cy="104.25608%" fx="50%" fy="104.25608%" r="104.25608%" id="radialGradient-1">
            <stop stop-color="#680016" offset="0%"></stop>
            <stop stop-color="#B20031" offset="100%"></stop>
        </radialGradient>
    </defs>
    <g id="Page-1" stroke="none" stroke-width="1" fill="none" fill-rule="evenodd" sketch:type="MSPage">
        <g id="avatar" sketch:type="MSArtboardGroup">
            <path d="M0,-7.19521947e-15 L1050,-7.19521947e-15 L1049.99998,600 L0,600 L0,-7.19521947e-15 Z" id="Background-3" fill="url(#radialGradient-1)" sketch:type="MSShapeGroup"></path>
            <g id="Group" sketch:type="MSLayerGroup" transform="translate(12.500000, 12.500000)" stroke="#FFFFFF" stroke-width="1.25" opacity="0.5">
                <path d="M0.243994867,0.531733835 L222.116661,221.926367" id="Line" stroke-linecap="square" sketch:type="MSShapeGroup"></path>
                <path d="M222.116661,0.531733835 L0.243994867,221.926367" id="Line" stroke-linecap="square" sketch:type="MSShapeGroup"></path>
                <path d="M0,-2.66656539e-15 L222.306435,-2.66656539e-15 L222.30643,222.361422 L0,222.361422 L0,-2.66656539e-15 Z" id="Background-3" sketch:type="MSShapeGroup"></path>
            </g>
            <path d="M32.84925,110.75 L39.26175,110.75 L39.26175,109.097 L36.95325,109.097 L38.83425,103.9385 L46.64325,103.9385 L48.55275,109.097 L46.24425,109.097 L46.24425,110.75 L52.65675,110.75 L52.65675,109.097 L50.60475,109.097 L43.85025,90.7145 L41.65575,90.7145 L34.90125,109.097 L32.84925,109.097 L32.84925,110.75 Z M39.37575,102.257 L42.42525,94.049 C42.65325,93.3935 42.71025,92.7665 42.71025,92.7665 L42.79575,92.7665 C42.79575,92.7665 42.88125,93.3935 43.10925,94.049 L46.10175,102.257 L39.37575,102.257 Z M53.19825,98.0105 L55.07925,98.0105 L59.95275,110.75 L62.03325,110.75 L66.90675,98.0105 L68.78775,98.0105 L68.78775,96.4145 L62.85975,96.4145 L62.85975,98.0105 L64.91175,98.0105 L61.32075,107.615 C61.12125,108.128 61.03575,108.7265 61.03575,108.7265 L60.95025,108.7265 C60.95025,108.7265 60.86475,108.128 60.66525,107.615 L57.07425,98.0105 L59.12625,98.0105 L59.12625,96.4145 L53.19825,96.4145 L53.19825,98.0105 Z M70.09875,106.817 C70.09875,109.7525 72.54975,111.092 74.88675,111.092 C78.56325,111.092 79.78875,107.8145 79.78875,107.8145 L79.84575,107.8145 C79.84575,107.8145 79.76025,108.242 79.76025,108.926 L79.76025,109.1825 C79.76025,110.2085 80.24475,110.75 81.47025,110.75 L83.80725,110.75 L83.80725,109.154 L82.23975,109.154 C81.84075,109.154 81.61275,108.9545 81.61275,108.527 L81.61275,101.459 C81.61275,97.925 79.81725,96.0725 76.34025,96.0725 C73.09125,96.0725 71.15325,97.697 71.15325,97.697 L72.06525,99.1505 C72.06525,99.1505 73.80375,97.754 76.22625,97.754 C78.22125,97.754 79.67475,98.6945 79.67475,101.3735 L79.67475,101.972 L78.73425,101.972 C76.31175,101.972 70.09875,102.1715 70.09875,106.817 L70.09875,106.817 Z M72.09375,106.6175 C72.09375,103.3115 77.67975,103.4255 78.84825,103.4255 L79.67475,103.4255 L79.67475,104.1095 C79.67475,106.6175 78.05025,109.496 75.17175,109.496 C73.17675,109.496 72.09375,108.0995 72.09375,106.6175 L72.09375,106.6175 Z M87.65475,105.5345 C87.65475,110.3225 91.01775,110.864 92.67075,110.864 C93.15525,110.864 93.49725,110.807 93.49725,110.807 L93.49725,109.1255 C93.49725,109.1255 93.24075,109.1825 92.84175,109.1825 C91.73025,109.1825 89.59275,108.7265 89.59275,105.3635 L89.59275,98.0105 L93.21225,98.0105 L93.21225,96.4145 L89.59275,96.4145 L89.59275,92.453 L87.68325,92.453 L87.68325,96.4145 L85.08975,96.4145 L85.08975,98.0105 L87.65475,98.0105 L87.65475,105.5345 Z M95.32125,106.817 C95.32125,109.7525 97.77225,111.092 100.10925,111.092 C103.78575,111.092 105.01125,107.8145 105.01125,107.8145 L105.06825,107.8145 C105.06825,107.8145 104.98275,108.242 104.98275,108.926 L104.98275,109.1825 C104.98275,110.2085 105.46725,110.75 106.69275,110.75 L109.02975,110.75 L109.02975,109.154 L107.46225,109.154 C107.06325,109.154 106.83525,108.9545 106.83525,108.527 L106.83525,101.459 C106.83525,97.925 105.03975,96.0725 101.56275,96.0725 C98.31375,96.0725 96.37575,97.697 96.37575,97.697 L97.28775,99.1505 C97.28775,99.1505 99.02625,97.754 101.44875,97.754 C103.44375,97.754 104.89725,98.6945 104.89725,101.3735 L104.89725,101.972 L103.95675,101.972 C101.53425,101.972 95.32125,102.1715 95.32125,106.817 L95.32125,106.817 Z M97.31625,106.6175 C97.31625,103.3115 102.90225,103.4255 104.07075,103.4255 L104.89725,103.4255 L104.89725,104.1095 C104.89725,106.6175 103.27275,109.496 100.39425,109.496 C98.39925,109.496 97.31625,108.0995 97.31625,106.6175 L97.31625,106.6175 Z M111.25275,110.75 L117.63675,110.75 L117.63675,109.154 L115.41375,109.154 L115.41375,104.6795 C115.41375,101.8295 116.72475,98.21 119.94525,98.21 C120.31575,98.21 120.68625,98.267 120.68625,98.267 L120.68625,96.3575 C120.68625,96.3575 120.28725,96.272 119.88825,96.272 C117.66525,96.272 116.06925,97.925 115.35675,100.091 L115.29975,100.091 C115.29975,100.091 115.35675,99.6065 115.35675,99.008 L115.35675,98.039 C115.35675,96.899 114.81525,96.4145 113.61825,96.4145 L110.91075,96.4145 L110.91075,98.0105 L112.84875,98.0105 C113.24775,98.0105 113.47575,98.21 113.47575,98.6375 L113.47575,109.154 L111.25275,109.154 L111.25275,110.75 Z M122.48175,111.947 L124.30575,111.947 L131.54475,89.603 L129.72075,89.603 L122.48175,111.947 Z M134.39475,110.75 L141.63375,110.75 L141.63375,109.097 L139.01175,109.097 L139.01175,102.827 L143.54325,102.827 C144.62625,102.827 145.56675,102.7415 146.50725,102.428 C148.73025,101.63 150.15525,99.4925 150.15525,96.728 C150.15525,94.163 148.90125,92.168 146.93475,91.2845 C145.99425,90.8285 144.74025,90.7145 143.51475,90.7145 L134.39475,90.7145 L134.39475,92.3675 L137.01675,92.3675 L137.01675,109.097 L134.39475,109.097 L134.39475,110.75 Z M139.01175,101.117 L139.01175,92.4245 L143.34375,92.4245 C144.39825,92.4245 145.33875,92.5955 146.05125,92.909 C147.36225,93.593 148.13175,94.904 148.13175,96.728 C148.13175,98.6945 147.24825,100.1195 145.76625,100.718 C145.08225,101.003 144.28425,101.117 143.34375,101.117 L139.01175,101.117 Z M152.00775,110.75 L158.79075,110.75 L158.79075,109.154 L156.36825,109.154 L156.36825,103.8815 C156.36825,100.4615 158.73375,97.8965 161.81175,97.8965 C164.57625,97.8965 164.91825,99.8915 164.91825,102.143 L164.91825,110.75 L169.30725,110.75 L169.30725,109.154 L166.85625,109.154 L166.85625,101.63 C166.85625,98.096 165.60225,96.0725 162.06825,96.0725 C158.81925,96.0725 156.88125,98.4095 156.31125,99.749 L156.25425,99.749 C156.25425,99.749 156.36825,99.236 156.36825,98.5805 L156.36825,90.7145 L151.86525,90.7145 L151.86525,92.3105 L154.43025,92.3105 L154.43025,109.154 L152.00775,109.154 L152.00775,110.75 Z M171.18825,103.511 C171.18825,107.843 174.57975,111.092 178.74075,111.092 C182.93025,111.092 186.32175,107.843 186.32175,103.511 C186.32175,99.2645 182.93025,96.0725 178.74075,96.0725 C174.57975,96.0725 171.18825,99.2645 171.18825,103.511 L171.18825,103.511 Z M173.18325,103.511 C173.18325,100.262 175.69125,97.811 178.74075,97.811 C181.81875,97.811 184.32675,100.262 184.32675,103.511 C184.32675,106.8455 181.81875,109.3535 178.74075,109.3535 C175.69125,109.3535 173.18325,106.8455 173.18325,103.511 L173.18325,103.511 Z M190.68225,105.5345 C190.68225,110.3225 194.04525,110.864 195.69825,110.864 C196.18275,110.864 196.52475,110.807 196.52475,110.807 L196.52475,109.1255 C196.52475,109.1255 196.26825,109.1825 195.86925,109.1825 C194.75775,109.1825 192.62025,108.7265 192.62025,105.3635 L192.62025,98.0105 L196.23975,98.0105 L196.23975,96.4145 L192.62025,96.4145 L192.62025,92.453 L190.71075,92.453 L190.71075,96.4145 L188.11725,96.4145 L188.11725,98.0105 L190.68225,98.0105 L190.68225,105.5345 Z M198.54825,103.511 C198.54825,107.843 201.93975,111.092 206.10075,111.092 C210.29025,111.092 213.68175,107.843 213.68175,103.511 C213.68175,99.2645 210.29025,96.0725 206.10075,96.0725 C201.93975,96.0725 198.54825,99.2645 198.54825,103.511 L198.54825,103.511 Z M200.54325,103.511 C200.54325,100.262 203.05125,97.811 206.10075,97.811 C209.17875,97.811 211.68675,100.262 211.68675,103.511 C211.68675,106.8455 209.17875,109.3535 206.10075,109.3535 C203.05125,109.3535 200.54325,106.8455 200.54325,103.511 L200.54325,103.511 Z M44.50575,144.75 L55.33575,144.75 L55.33575,143.04 L50.94675,143.04 L50.94675,124.7145 L49.09425,124.7145 L44.56275,129.2175 L45.81675,130.4715 L47.95425,128.3625 C48.75225,127.593 48.95175,127.1655 48.95175,127.1655 L49.00875,127.1655 C49.00875,127.1655 48.98025,127.707 48.98025,128.277 L48.98025,143.04 L44.50575,143.04 L44.50575,144.75 Z M64.76925,145.092 C69.98475,145.092 71.69475,140.532 71.69475,134.718 C71.69475,128.961 69.98475,124.3725 64.76925,124.3725 C59.55375,124.3725 57.87225,128.961 57.87225,134.718 C57.87225,140.532 59.55375,145.092 64.76925,145.092 L64.76925,145.092 Z M64.76925,143.268 C60.97875,143.268 59.92425,139.5345 59.92425,134.718 C59.92425,129.93 60.97875,126.1965 64.76925,126.1965 C68.58825,126.1965 69.64275,129.93 69.64275,134.718 C69.64275,139.5345 68.58825,143.268 64.76925,143.268 L64.76925,143.268 Z M82.35375,145.092 C87.56925,145.092 89.27925,140.532 89.27925,134.718 C89.27925,128.961 87.56925,124.3725 82.35375,124.3725 C77.13825,124.3725 75.45675,128.961 75.45675,134.718 C75.45675,140.532 77.13825,145.092 82.35375,145.092 L82.35375,145.092 Z M82.35375,143.268 C78.56325,143.268 77.50875,139.5345 77.50875,134.718 C77.50875,129.93 78.56325,126.1965 82.35375,126.1965 C86.17275,126.1965 87.22725,129.93 87.22725,134.718 C87.22725,139.5345 86.17275,143.268 82.35375,143.268 L82.35375,143.268 Z M99.93825,145.092 C105.15375,145.092 106.86375,140.532 106.86375,134.718 C106.86375,128.961 105.15375,124.3725 99.93825,124.3725 C94.72275,124.3725 93.04125,128.961 93.04125,134.718 C93.04125,140.532 94.72275,145.092 99.93825,145.092 L99.93825,145.092 Z M99.93825,143.268 C96.14775,143.268 95.09325,139.5345 95.09325,134.718 C95.09325,129.93 96.14775,126.1965 99.93825,126.1965 C103.75725,126.1965 104.81175,129.93 104.81175,134.718 C104.81175,139.5345 103.75725,143.268 99.93825,143.268 L99.93825,143.268 Z M116.69625,144.75 L120.08775,144.75 L123.27975,139.506 C123.56475,139.0785 123.73575,138.651 123.73575,138.651 L123.79275,138.651 C123.79275,138.651 124.02075,139.107 124.27725,139.4775 L127.49775,144.75 L130.86075,144.75 L130.86075,143.154 L128.69475,143.154 L124.96125,137.3115 L128.35275,132.0105 L130.71825,132.0105 L130.71825,130.4145 L127.24125,130.4145 L124.30575,135.117 C124.04925,135.5445 123.84975,135.972 123.84975,135.972 L123.79275,135.972 C123.79275,135.972 123.56475,135.516 123.33675,135.1455 L120.45825,130.4145 L116.83875,130.4145 L116.83875,132.0105 L119.28975,132.0105 L122.65275,137.3115 L118.97625,143.154 L116.69625,143.154 L116.69625,144.75 Z M140.18025,144.75 L151.01025,144.75 L151.01025,143.04 L146.62125,143.04 L146.62125,124.7145 L144.76875,124.7145 L140.23725,129.2175 L141.49125,130.4715 L143.62875,128.3625 C144.42675,127.593 144.62625,127.1655 144.62625,127.1655 L144.68325,127.1655 C144.68325,127.1655 144.65475,127.707 144.65475,128.277 L144.65475,143.04 L140.18025,143.04 L140.18025,144.75 Z M160.44375,145.092 C165.65925,145.092 167.36925,140.532 167.36925,134.718 C167.36925,128.961 165.65925,124.3725 160.44375,124.3725 C155.22825,124.3725 153.54675,128.961 153.54675,134.718 C153.54675,140.532 155.22825,145.092 160.44375,145.092 L160.44375,145.092 Z M160.44375,143.268 C156.65325,143.268 155.59875,139.5345 155.59875,134.718 C155.59875,129.93 156.65325,126.1965 160.44375,126.1965 C164.26275,126.1965 165.31725,129.93 165.31725,134.718 C165.31725,139.5345 164.26275,143.268 160.44375,143.268 L160.44375,143.268 Z M178.02825,145.092 C183.24375,145.092 184.95375,140.532 184.95375,134.718 C184.95375,128.961 183.24375,124.3725 178.02825,124.3725 C172.81275,124.3725 171.13125,128.961 171.13125,134.718 C171.13125,140.532 172.81275,145.092 178.02825,145.092 L178.02825,145.092 Z M178.02825,143.268 C174.23775,143.268 173.18325,139.5345 173.18325,134.718 C173.18325,129.93 174.23775,126.1965 178.02825,126.1965 C181.84725,126.1965 182.90175,129.93 182.90175,134.718 C182.90175,139.5345 181.84725,143.268 178.02825,143.268 L178.02825,143.268 Z M195.61275,145.092 C200.82825,145.092 202.53825,140.532 202.53825,134.718 C202.53825,128.961 200.82825,124.3725 195.61275,124.3725 C190.39725,124.3725 188.71575,128.961 188.71575,134.718 C188.71575,140.532 190.39725,145.092 195.61275,145.092 L195.61275,145.092 Z M195.61275,143.268 C191.82225,143.268 190.76775,139.5345 190.76775,134.718 C190.76775,129.93 191.82225,126.1965 195.61275,126.1965 C199.43175,126.1965 200.48625,129.93 200.48625,134.718 C200.48625,139.5345 199.43175,143.268 195.61275,143.268 L195.61275,143.268 Z" id="Avatar/Photo" fill="#FFFFFF" sketch:type="MSShapeGroup"></path>
        </g>
    </g>
</svg>