<?xml version="1.0" encoding="UTF-8" standalone="no"?>
<svg width="4200px" height="2400px" viewBox="0 0 4200 2400" version="1.1" xmlns="http://www.w3.org/2000/svg" xmlns:xlink="http://www.w3.org/1999/xlink" xmlns:sketch="http://www.bohemiancoding.com/sketch/ns">
    <!-- Generator: Sketch 3.5.2 (25235) - http://www.bohemiancoding.com/sketch -->
    <title>Illustration</title>
    <desc>Created with Sketch.</desc>
    <defs>
        <radialGradient cx="50%" cy="104.25608%" fx="50%" fy="104.25608%" r="104.25608%" id="radialGradient-1">
            <stop stop-color="#680016" offset="0%"></stop>
            <stop stop-color="#B20031" offset="100%"></stop>
        </radialGradient>
    </defs>
    <g id="Page-1" stroke="none" stroke-width="1" fill="none" fill-rule="evenodd" sketch:type="MSPage">
        <g id="Illustration" sketch:type="MSArtboardGroup">
            <path d="M0,-2.87808779e-14 L4200,-2.87808779e-14 L4199.99992,2400 L0,2400 L0,-2.87808779e-14 Z" id="Background-3" fill="url(#radialGradient-1)" sketch:type="MSShapeGroup"></path>
            <path d="M54.5,55.5 L4146.5,2345.5" id="Line" stroke="#FFFFFF" stroke-width="5" stroke-linecap="square" opacity="0.5" sketch:type="MSShapeGroup"></path>
            <path d="M4146.5,55.5 L54.5,2345.5" id="Line" stroke="#FFFFFF" stroke-width="5" stroke-linecap="square" opacity="0.5" sketch:type="MSShapeGroup"></path>
            <path d="M50,50 L4150,50 L4149.99992,2350 L50,2350 L50,50 Z" id="Background-3" stroke="#FFFFFF" stroke-width="5" opacity="0.5" sketch:type="MSShapeGroup"></path>
            <path d="M1496.234,1033 L1553.086,1033 L1553.086,1023.24 L1529.906,1023.24 L1529.906,871.96 L1553.086,871.96 L1553.086,862.2 L1496.234,862.2 L1496.234,871.96 L1519.414,871.96 L1519.414,1023.24 L1496.234,1023.24 L1496.234,1033 Z M1589.442,1006.16 C1589.442,1024.948 1597.982,1033.488 1612.378,1033.488 C1617.014,1033.488 1621.162,1033 1621.162,1033 L1621.406,1023.484 C1621.406,1023.484 1618.722,1023.972 1614.086,1023.972 C1602.374,1023.972 1599.69,1014.7 1599.69,1005.184 L1599.69,862.2 L1566.506,862.2 L1566.506,871.716 L1589.442,871.716 L1589.442,1006.16 Z M1651.174,1006.16 C1651.174,1024.948 1659.714,1033.488 1674.11,1033.488 C1678.746,1033.488 1682.894,1033 1682.894,1033 L1683.138,1023.484 C1683.138,1023.484 1680.454,1023.972 1675.818,1023.972 C1664.106,1023.972 1661.422,1014.7 1661.422,1005.184 L1661.422,862.2 L1628.238,862.2 L1628.238,871.716 L1651.174,871.716 L1651.174,1006.16 Z M1717.054,988.348 C1717.054,1019.336 1727.302,1035.928 1757.314,1035.928 C1786.838,1035.928 1803.186,1014.212 1807.334,1002.744 L1807.822,1002.744 C1807.822,1002.744 1807.334,1007.136 1807.334,1012.748 L1807.334,1019.58 C1807.334,1028.852 1811.482,1033 1821.486,1033 L1837.59,1033 L1837.59,1023.728 L1822.95,1023.728 C1819.534,1023.728 1817.582,1022.02 1817.582,1018.36 L1817.582,911 L1784.154,911 L1784.154,920.516 L1807.334,920.516 L1807.334,970.536 C1807.334,999.084 1787.814,1025.924 1757.314,1025.924 C1729.986,1025.924 1727.302,1005.916 1727.302,984.688 L1727.302,911 L1693.874,911 L1693.874,920.516 L1717.054,920.516 L1717.054,988.348 Z M1857.842,1007.136 C1857.842,1025.436 1879.802,1035.928 1902.494,1035.928 C1929.09,1035.928 1946.17,1022.264 1946.17,1002.744 C1946.17,981.76 1925.918,973.708 1906.886,966.388 C1889.806,959.8 1873.458,953.7 1873.458,938.816 C1873.458,925.152 1887.61,918.076 1902.738,918.076 C1916.89,918.076 1931.042,924.42 1931.042,934.668 L1931.042,944.672 L1941.29,944.672 L1941.29,931.252 C1941.29,915.148 1918.11,908.072 1902.25,908.072 C1882.73,908.072 1862.722,918.808 1862.722,939.548 C1862.722,960.044 1881.754,968.096 1900.298,975.172 C1918.11,982.004 1935.434,987.86 1935.434,1003.72 C1935.434,1018.116 1920.306,1025.924 1903.47,1025.924 C1888.83,1025.924 1868.09,1020.068 1868.09,1005.916 L1868.09,996.644 L1857.842,996.644 L1857.842,1007.136 Z M1985.454,988.836 C1985.454,1029.34 2011.562,1033.976 2024.25,1033.976 C2027.91,1033.976 2030.35,1033.488 2030.35,1033.488 L2030.35,1023.972 C2030.35,1023.972 2028.154,1024.46 2024.738,1024.46 C2014.978,1024.46 1995.702,1020.312 1995.702,988.104 L1995.702,920.516 L2027.666,920.516 L2027.666,911 L1995.702,911 L1995.702,877.084 L1985.454,877.084 L1985.454,911 L1962.274,911 L1962.274,920.516 L1985.454,920.516 L1985.454,988.836 Z M2047.674,1033 L2096.962,1033 L2096.962,1023.484 L2077.442,1023.484 L2077.442,980.296 C2077.442,955.408 2088.91,920.516 2117.458,920.516 C2120.142,920.516 2123.07,921.004 2123.07,921.004 L2123.07,910.756 C2123.07,910.756 2119.654,910.024 2115.994,910.024 C2096.718,910.024 2083.542,924.176 2077.442,942.964 L2076.954,942.964 C2076.954,942.964 2077.442,938.572 2077.442,932.96 L2077.442,924.42 C2077.442,915.148 2073.294,911 2063.29,911 L2044.014,911 L2044.014,920.516 L2061.826,920.516 C2065.242,920.516 2067.194,922.224 2067.194,925.884 L2067.194,1023.484 L2047.674,1023.484 L2047.674,1033 Z M2136.49,999.816 C2136.49,1024.948 2157.962,1035.928 2177.482,1035.928 C2209.934,1035.928 2220.67,1005.916 2220.67,1005.916 L2221.158,1005.916 C2221.158,1005.916 2220.182,1010.308 2220.182,1016.896 L2220.182,1019.58 C2220.182,1028.852 2224.33,1033 2234.334,1033 L2250.438,1033 L2250.438,1023.484 L2235.798,1023.484 C2232.382,1023.484 2230.43,1021.776 2230.43,1018.116 L2230.43,952.968 C2230.43,923.2 2216.034,908.072 2187.974,908.072 C2161.378,908.072 2146.006,921.492 2146.006,921.492 L2151.862,929.788 C2151.862,929.788 2166.258,917.832 2187.73,917.832 C2206.762,917.832 2220.182,927.104 2220.182,953.212 L2220.182,958.58 L2212.13,958.58 C2191.146,958.58 2136.49,959.312 2136.49,999.816 L2136.49,999.816 Z M2147.226,998.596 C2147.226,965.9 2203.346,968.096 2212.374,968.096 L2220.182,968.096 L2220.182,974.684 C2220.182,998.84 2205.542,1026.412 2177.482,1026.412 C2157.718,1026.412 2147.226,1012.748 2147.226,998.596 L2147.226,998.596 Z M2283.866,988.836 C2283.866,1029.34 2309.974,1033.976 2322.662,1033.976 C2326.322,1033.976 2328.762,1033.488 2328.762,1033.488 L2328.762,1023.972 C2328.762,1023.972 2326.566,1024.46 2323.15,1024.46 C2313.39,1024.46 2294.114,1020.312 2294.114,988.104 L2294.114,920.516 L2326.078,920.516 L2326.078,911 L2294.114,911 L2294.114,877.084 L2283.866,877.084 L2283.866,911 L2260.686,911 L2260.686,920.516 L2283.866,920.516 L2283.866,988.836 Z M2365.118,880.012 L2378.294,880.012 L2378.294,862.2 L2365.118,862.2 L2365.118,880.012 Z M2344.622,1033 L2398.79,1033 L2398.79,1023.484 L2376.83,1023.484 L2376.83,911 L2343.402,911 L2343.402,920.516 L2366.582,920.516 L2366.582,1023.484 L2344.622,1023.484 L2344.622,1033 Z M2417.822,971.268 C2417.822,1007.624 2446.126,1035.928 2481.018,1035.928 C2515.91,1035.928 2544.214,1007.624 2544.214,971.268 C2544.214,935.644 2515.91,908.072 2481.018,908.072 C2446.126,908.072 2417.822,935.644 2417.822,971.268 L2417.822,971.268 Z M2428.558,971.268 C2428.558,941.012 2451.982,918.076 2481.018,918.076 C2510.054,918.076 2533.478,941.012 2533.478,971.268 C2533.478,1002.256 2510.054,1025.924 2481.018,1025.924 C2451.982,1025.924 2428.558,1002.256 2428.558,971.268 L2428.558,971.268 Z M2567.394,1033 L2621.562,1033 L2621.562,1023.484 L2599.602,1023.484 L2599.602,972.488 C2599.602,942.964 2621.806,918.076 2650.842,918.076 C2678.17,918.076 2680.854,938.084 2680.854,959.312 L2680.854,1033 L2713.062,1033 L2713.062,1023.484 L2691.102,1023.484 L2691.102,955.652 C2691.102,926.86 2682.562,908.072 2650.842,908.072 C2620.342,908.072 2603.262,931.008 2599.114,942.476 L2598.626,942.476 C2598.626,942.476 2599.602,938.084 2599.602,932.472 L2599.602,924.42 C2599.602,915.148 2595.454,911 2585.45,911 L2566.174,911 L2566.174,920.516 L2583.986,920.516 C2587.402,920.516 2589.354,922.224 2589.354,925.884 L2589.354,1023.484 L2567.394,1023.484 L2567.394,1033 Z M1444.872,1325 L1554.916,1325 L1554.916,1290.596 L1544.668,1290.596 L1544.668,1315.24 L1455.364,1315.24 C1455.364,1263.756 1546.132,1256.436 1546.132,1198.12 C1546.132,1173.72 1529.296,1151.272 1495.624,1151.272 C1461.464,1151.272 1446.092,1180.552 1446.092,1180.552 L1453.9,1185.92 C1453.9,1185.92 1468.052,1161.276 1495.38,1161.276 C1520.024,1161.276 1535.152,1177.624 1535.152,1198.12 C1535.152,1249.848 1444.14,1256.68 1444.14,1315.972 C1444.14,1318.9 1444.384,1321.828 1444.872,1325 L1444.872,1325 Z M1581.024,1325 L1668.132,1325 L1668.132,1315.24 L1630.312,1315.24 L1630.312,1154.2 L1619.82,1154.2 L1582.976,1191.288 L1590.296,1198.364 L1610.548,1178.112 C1617.868,1170.792 1619.576,1167.62 1619.576,1167.62 L1620.064,1167.62 C1620.064,1167.62 1619.82,1171.768 1619.82,1176.16 L1619.82,1315.24 L1581.024,1315.24 L1581.024,1325 Z M1748.408,1327.928 C1791.84,1327.928 1805.992,1289.132 1805.992,1239.6 C1805.992,1190.312 1791.84,1151.272 1748.408,1151.272 C1704.976,1151.272 1690.824,1190.312 1690.824,1239.6 C1690.824,1289.132 1704.976,1327.928 1748.408,1327.928 L1748.408,1327.928 Z M1748.408,1317.924 C1712.052,1317.924 1701.804,1283.764 1701.804,1239.6 C1701.804,1195.68 1712.052,1161.276 1748.408,1161.276 C1784.764,1161.276 1795.012,1195.68 1795.012,1239.6 C1795.012,1283.764 1784.764,1317.924 1748.408,1317.924 L1748.408,1317.924 Z M1898.224,1327.928 C1941.656,1327.928 1955.808,1289.132 1955.808,1239.6 C1955.808,1190.312 1941.656,1151.272 1898.224,1151.272 C1854.792,1151.272 1840.64,1190.312 1840.64,1239.6 C1840.64,1289.132 1854.792,1327.928 1898.224,1327.928 L1898.224,1327.928 Z M1898.224,1317.924 C1861.868,1317.924 1851.62,1283.764 1851.62,1239.6 C1851.62,1195.68 1861.868,1161.276 1898.224,1161.276 C1934.58,1161.276 1944.828,1195.68 1944.828,1239.6 C1944.828,1283.764 1934.58,1317.924 1898.224,1317.924 L1898.224,1317.924 Z M2040.476,1325 L2066.34,1325 L2096.352,1275.712 C2098.548,1272.296 2100.012,1269.124 2100.012,1269.124 L2100.5,1269.124 C2100.5,1269.124 2102.208,1272.54 2104.16,1275.468 L2134.416,1325 L2160.524,1325 L2160.524,1315.484 L2140.516,1315.484 L2106.844,1261.56 L2137.588,1212.516 L2159.06,1212.516 L2159.06,1203 L2131.732,1203 L2104.404,1247.164 C2102.208,1250.58 2100.744,1253.752 2100.744,1253.752 L2100.256,1253.752 C2100.256,1253.752 2098.548,1250.336 2096.596,1247.408 L2069.512,1203 L2041.94,1203 L2041.94,1212.516 L2063.656,1212.516 L2093.912,1261.316 L2060.728,1315.484 L2040.476,1315.484 L2040.476,1325 Z M2239.824,1325 L2326.932,1325 L2326.932,1315.24 L2289.112,1315.24 L2289.112,1154.2 L2278.62,1154.2 L2241.776,1191.288 L2249.096,1198.364 L2269.348,1178.112 C2276.668,1170.792 2278.376,1167.62 2278.376,1167.62 L2278.864,1167.62 C2278.864,1167.62 2278.62,1171.768 2278.62,1176.16 L2278.62,1315.24 L2239.824,1315.24 L2239.824,1325 Z M2346.94,1325 L2456.984,1325 L2456.984,1290.596 L2446.736,1290.596 L2446.736,1315.24 L2357.432,1315.24 C2357.432,1263.756 2448.2,1256.436 2448.2,1198.12 C2448.2,1173.72 2431.364,1151.272 2397.692,1151.272 C2363.532,1151.272 2348.16,1180.552 2348.16,1180.552 L2355.968,1185.92 C2355.968,1185.92 2370.12,1161.276 2397.448,1161.276 C2422.092,1161.276 2437.22,1177.624 2437.22,1198.12 C2437.22,1249.848 2346.208,1256.68 2346.208,1315.972 C2346.208,1318.9 2346.452,1321.828 2346.94,1325 L2346.94,1325 Z M2546.044,1327.928 C2589.476,1327.928 2603.628,1289.132 2603.628,1239.6 C2603.628,1190.312 2589.476,1151.272 2546.044,1151.272 C2502.612,1151.272 2488.46,1190.312 2488.46,1239.6 C2488.46,1289.132 2502.612,1327.928 2546.044,1327.928 L2546.044,1327.928 Z M2546.044,1317.924 C2509.688,1317.924 2499.44,1283.764 2499.44,1239.6 C2499.44,1195.68 2509.688,1161.276 2546.044,1161.276 C2582.4,1161.276 2592.648,1195.68 2592.648,1239.6 C2592.648,1283.764 2582.4,1317.924 2546.044,1317.924 L2546.044,1317.924 Z M2695.86,1327.928 C2739.292,1327.928 2753.444,1289.132 2753.444,1239.6 C2753.444,1190.312 2739.292,1151.272 2695.86,1151.272 C2652.428,1151.272 2638.276,1190.312 2638.276,1239.6 C2638.276,1289.132 2652.428,1327.928 2695.86,1327.928 L2695.86,1327.928 Z M2695.86,1317.924 C2659.504,1317.924 2649.256,1283.764 2649.256,1239.6 C2649.256,1195.68 2659.504,1161.276 2695.86,1161.276 C2732.216,1161.276 2742.464,1195.68 2742.464,1239.6 C2742.464,1283.764 2732.216,1317.924 2695.86,1317.924 L2695.86,1317.924 Z M1885.78,1557.464 C1885.78,1607.484 1924.088,1646.768 1971.668,1646.768 L1971.668,1636.52 C1929.456,1636.52 1896.76,1601.872 1896.76,1557.708 C1896.76,1513.788 1928.724,1478.408 1973.132,1478.408 C2003.388,1478.408 2015.344,1494.512 2015.832,1510.372 L1979.232,1510.372 C1953.124,1510.372 1932.14,1532.088 1932.14,1558.196 C1932.14,1584.304 1953.124,1605.532 1979.232,1605.532 L2043.892,1605.532 L2043.892,1595.772 L2026.812,1595.772 L2026.812,1511.836 C2026.812,1490.12 2010.464,1468.648 1973.132,1468.648 C1922.624,1468.648 1885.78,1508.42 1885.78,1557.464 L1885.78,1557.464 Z M1943.12,1558.196 C1943.12,1537.456 1959.712,1520.132 1980.94,1520.132 L2015.832,1520.132 L2015.832,1595.772 L1980.452,1595.772 C1959.712,1595.772 1943.12,1578.936 1943.12,1558.196 L1943.12,1558.196 Z M2071.22,1617 L2181.264,1617 L2181.264,1582.596 L2171.016,1582.596 L2171.016,1607.24 L2081.712,1607.24 C2081.712,1555.756 2172.48,1548.436 2172.48,1490.12 C2172.48,1465.72 2155.644,1443.272 2121.972,1443.272 C2087.812,1443.272 2072.44,1472.552 2072.44,1472.552 L2080.248,1477.92 C2080.248,1477.92 2094.4,1453.276 2121.728,1453.276 C2146.372,1453.276 2161.5,1469.624 2161.5,1490.12 C2161.5,1541.848 2070.488,1548.68 2070.488,1607.972 C2070.488,1610.9 2070.732,1613.828 2071.22,1617 L2071.22,1617 Z M2201.76,1617 L2227.624,1617 L2257.636,1567.712 C2259.832,1564.296 2261.296,1561.124 2261.296,1561.124 L2261.784,1561.124 C2261.784,1561.124 2263.492,1564.54 2265.444,1567.468 L2295.7,1617 L2321.808,1617 L2321.808,1607.484 L2301.8,1607.484 L2268.128,1553.56 L2298.872,1504.516 L2320.344,1504.516 L2320.344,1495 L2293.016,1495 L2265.688,1539.164 C2263.492,1542.58 2262.028,1545.752 2262.028,1545.752 L2261.54,1545.752 C2261.54,1545.752 2259.832,1542.336 2257.88,1539.408 L2230.796,1495 L2203.224,1495 L2203.224,1504.516 L2224.94,1504.516 L2255.196,1553.316 L2222.012,1607.484 L2201.76,1607.484 L2201.76,1617 Z" fill="#FFFFFF" sketch:type="MSShapeGroup"></path>
        </g>
    </g>
</svg>