<?xml version="1.0" encoding="UTF-8" standalone="no"?>
<svg width="300px" height="67px" viewBox="0 0 300 67" version="1.1" xmlns="http://www.w3.org/2000/svg" xmlns:xlink="http://www.w3.org/1999/xlink" xmlns:sketch="http://www.bohemiancoding.com/sketch/ns">
    <!-- Generator: Sketch 3.5.2 (25235) - http://www.bohemiancoding.com/sketch -->
    <title>fireside-company-logo-horizontal</title>
    <desc>Created with Sketch.</desc>
    <defs>
        <linearGradient x1="50%" y1="0%" x2="50%" y2="100%" id="linearGradient-1">
            <stop stop-color="#B40032" offset="0%"></stop>
            <stop stop-color="#640014" offset="100%"></stop>
        </linearGradient>
        <linearGradient x1="50%" y1="-619.577592%" x2="50%" y2="50%" id="linearGradient-2">
            <stop stop-color="#FF5000" offset="0%"></stop>
            <stop stop-color="#B40032" offset="100%"></stop>
        </linearGradient>
    </defs>
    <g id="Page-1" stroke="none" stroke-width="1" fill="none" fill-rule="evenodd" sketch:type="MSPage">
        <g id="fireside-company-logo-horizontal" sketch:type="MSLayerGroup" transform="translate(0.000000, 0.212540)">
            <g id="Fireside-Logo-Square-2" sketch:type="MSShapeGroup">
                <path d="M56.0512463,1.15419847 L1.49234832,1.15419847 L1.49234832,50.3773687 L17.9760139,50.3773687 L28.6133371,57.0988774 L38.5297203,50.3773687 L56.0512463,50.3773687 L56.0512463,1.15419847" id="Fill-1" fill="url(#linearGradient-1)"></path>
                <path d="M38.8193716,28.2388914 C38.8191002,28.2379409 38.8188289,28.2373978 38.8184219,28.2368546 C34.3983575,20.9620095 33.3488296,13.869392 36.7889639,9.47909259 C37.0939456,9.08965245 37.4283673,8.73008568 37.7897869,8.39876282 C37.9877266,8.23391612 38.1381824,8.00810058 38.2064234,7.73924023 C38.3784505,7.06152205 37.96914,6.37253345 37.2918852,6.20021841 C37.130169,6.15907463 36.9680457,6.15187786 36.8120274,6.17292501 C36.8099924,6.16885137 36.8082287,6.16477773 36.8061937,6.1605683 C28.8522485,7.27145038 18.1308111,19.3745114 16.5139195,32.6814692 C16.5003527,32.7934944 16.5088998,32.7186752 16.5091712,32.7186752 C15.6958413,39.0564469 19.3309305,45.3397676 25.6412576,46.9447824 C32.194159,48.6117166 38.856409,44.6460264 40.521734,38.0871917 C41.4137513,34.5738116 40.6903694,31.0292002 38.8193716,28.2388914" id="Fill-2" fill="#FF5000"></path>
                <path d="M39.0179896,27.1646721 C38.2680167,24.7915043 38.7176206,20.556818 39.5095149,18.4469432 C39.6834413,17.9834985 39.8941337,17.5398789 40.1392858,17.1152697 C40.2784812,16.8982804 40.3539127,16.6375673 40.3383108,16.3605597 C40.2985601,15.6623375 39.7009424,15.1285546 39.0034731,15.1683405 C38.8368728,15.1779815 38.6799049,15.2200758 38.5375891,15.2871551 C38.5343331,15.2836246 38.531484,15.2800941 38.528228,15.276971 C37.4029974,15.8408988 36.2456134,16.6789827 35.3523751,17.5396074 C35.6950725,19.3032226 36.936028,24.7157345 39.0179896,27.1646721" id="Fill-3" fill="#FF5000"></path>
                <path d="M33.9929814,34.1792115 C33.9927101,34.1786683 33.9925744,34.178261 33.9923031,34.1779894 C30.9049058,30.3547409 29.7426377,26.3546964 31.3418925,23.5370942 C31.4838012,23.2869726 31.6445679,23.0519235 31.8229713,22.8307247 C31.922009,22.719107 31.9893003,22.5763937 32.0065302,22.4157564 C32.0498083,22.0107007 31.762599,21.647875 31.364956,21.6052375 C31.2699884,21.5951892 31.1774628,21.6045586 31.090771,21.6296794 C31.0891429,21.6275068 31.0879219,21.6253342 31.0862939,21.6230258 C26.6658225,22.927949 21.5549365,30.7994468 21.7024077,38.6037295 C21.703493,38.6694509 21.7024077,38.6255914 21.7024077,38.6255914 C21.7481278,42.3460483 24.3114395,45.6636221 28.0173474,46.0612095 C31.8657067,46.474141 35.3257842,43.6315538 35.745541,39.7125748 C35.970343,37.6131556 35.2769437,35.6309216 33.9929814,34.1792115" id="Fill-4" fill="#F2C300"></path>
                <path d="M55.4593267,0.0321817692 L1.76721175,0.0321817692 C0.800305705,0.0321817692 0.0164158316,0.72279982 0.0164158316,1.57486987 L0.0164158316,50.49822 C0.0164158316,51.3501543 0.800305705,52.0409081 1.76721175,52.0409081 L4.18698672,52.0409081 L4.18685105,52.0411797 L5.64758873,52.0411797 C15.1184382,52.0411797 23.3711244,54.1662628 27.6903875,57.3098921 L27.6922868,57.3098921 C27.905964,57.540596 28.210403,57.6858892 28.5493018,57.6858892 C28.8915922,57.6858892 29.1984733,57.5378802 29.4121504,57.30351 C33.7339912,54.1634112 41.981522,52.0411797 51.4457237,52.0411797 L53.2507869,52.0411797 L53.2506512,52.0409081 L55.4593267,52.0409081 C56.4262328,52.0409081 57.2101226,51.3501543 57.2101226,50.49822 L57.2101226,1.57486987 C57.2101226,0.72279982 56.4262328,0.0321817692 55.4593267,0.0321817692 L55.4593267,0.0321817692 Z M54.9473156,44.9386497 C54.9473156,45.6607705 54.2255617,46.2461529 53.3351724,46.2461529 L51.1909392,46.2461529 L51.1910749,46.2484612 C38.7535726,46.3435129 30.3508375,54.6822574 28.87287,56.2587567 C28.8228085,56.3555736 28.7228212,56.4225171 28.6062823,56.4225171 C28.5318006,56.4225171 28.4645092,56.3945448 28.4120057,56.3497347 C28.4016949,56.34634 28.3911128,56.3402295 28.3799881,56.3282802 C27.0942621,54.9398473 18.5744456,46.2901482 5.8776817,46.2471034 L5.87781737,46.2461529 L3.89136609,46.2461529 C3.00097681,46.2461529 2.27922289,45.6607705 2.27922289,44.9386497 L2.27922289,3.37039533 C2.27922289,2.64827445 3.00097681,2.06289214 3.89136609,2.06289214 L53.3351724,2.06289214 C54.2255617,2.06289214 54.9473156,2.64827445 54.9473156,3.37039533 L54.9473156,44.9386497 L54.9473156,44.9386497 Z" id="Fill-5" fill="#FF5000"></path>
            </g>
            <g id="Type-2" transform="translate(70.992366, 4.580153)" sketch:type="MSShapeGroup">
                <path d="M14.2046854,52.4273298 L7.88702766,52.4273298 L7.88702766,53.1643996 L8.32894288,53.1643996 C8.63561002,53.1643996 8.72147682,53.3359942 8.72147682,53.5450563 L8.72147682,60.1516072 C8.72147682,60.3603545 8.63561002,60.5322639 8.32894288,60.5322639 L7.88702766,60.5322639 L7.88702766,61.268704 L10.6715653,61.268704 L10.6715653,60.5322639 L9.82547855,60.5322639 L9.82547855,57.4372634 L13.1003691,57.4372634 L13.1003691,56.5780309 L9.82547855,56.5780309 L9.82547855,53.2871921 L13.1374837,53.2871921 L13.4564176,54.5025229 L14.2046854,54.5025229 L14.2046854,52.4273298" id="Fill-1" fill="#B40032"></path>
                <path d="M25.0484357,52.4273298 L22.2761647,52.4273298 L22.2761647,53.1643996 L22.7174508,53.1643996 C23.024118,53.1643996 23.1102993,53.3359942 23.1102993,53.5450563 L23.1102993,60.1516072 C23.1102993,60.3603545 23.024118,60.5322639 22.7174508,60.5322639 L22.2761647,60.5322639 L22.2761647,61.268704 L25.0484357,61.268704 L25.0484357,60.5322639 L24.606835,60.5322639 C24.3247012,60.5322639 24.2262532,60.3968773 24.2146156,60.2126886 L24.2146156,53.4836601 C24.2262532,53.3114357 24.3247012,53.1643996 24.606835,53.1643996 L25.0484357,53.1643996 L25.0484357,52.4273298" id="Fill-2" fill="#B40032"></path>
                <path d="M37.3028548,52.2802936 C34.9473366,52.2802936 33.2668007,53.5941733 33.2668007,56.8358951 C33.2668007,60.0898961 34.9473366,61.4157402 37.3028548,61.4157402 C38.0753415,61.4157402 39.0324575,61.2812981 39.952459,61.0231191 L39.952459,59.4390959 L39.3142768,59.4390959 C38.9585429,60.1758509 38.6764091,60.5565076 37.3761404,60.5565076 C35.7569379,60.5565076 34.4201837,59.6229698 34.4201837,56.8972913 C34.4201837,54.1709832 35.73209,53.1395262 37.2044068,53.1395262 C38.4804567,53.1395262 38.9585429,53.520183 39.3142768,54.2572528 L39.952459,54.2572528 L39.952459,52.6732296 C39.0324575,52.4153654 38.0753415,52.2802936 37.3028548,52.2802936" id="Fill-3" fill="#B40032"></path>
                <path d="M55.5434167,52.4273298 L47.8764235,52.4273298 L47.8764235,54.9203322 L48.6246913,54.9203322 L48.9436252,53.2871921 L51.1642098,53.2871921 L51.1642098,60.1516072 C51.1642098,60.3603545 51.0780285,60.5322639 50.7713613,60.5322639 L50.3300752,60.5322639 L50.3300752,61.268704 L53.1020317,61.268704 L53.1020317,60.5322639 L52.660431,60.5322639 C52.3786117,60.5322639 52.2801637,60.3968773 52.2682115,60.2126886 L52.2682115,53.2871921 L54.4759005,53.2871921 L54.7948343,54.9203322 L55.5434167,54.9203322 L55.5434167,52.4273298" id="Fill-4" fill="#B40032"></path>
                <path d="M66.2764522,52.4273298 L63.5038667,52.4273298 L63.5038667,53.1643996 L63.9454674,53.1643996 C64.2521346,53.1643996 64.3380014,53.3359942 64.3380014,53.5450563 L64.3380014,60.1516072 C64.3380014,60.3603545 64.2521346,60.5322639 63.9454674,60.5322639 L63.5038667,60.5322639 L63.5038667,61.268704 L66.2764522,61.268704 L66.2764522,60.5322639 L65.8348516,60.5322639 C65.5524032,60.5322639 65.4545843,60.3968773 65.4420031,60.2126886 L65.4420031,53.4836601 C65.4545843,53.3114357 65.5524032,53.1643996 65.8348516,53.1643996 L66.2764522,53.1643996 L66.2764522,52.4273298" id="Fill-5" fill="#B40032"></path>
                <path d="M78.4814901,60.5565076 C76.9849545,60.5565076 75.635619,59.6106905 75.635619,56.8481743 C75.635619,54.0853433 76.9849545,53.127247 78.4814901,53.127247 C79.9780258,53.127247 81.3276758,54.0853433 81.3276758,56.8481743 C81.3276758,59.6106905 79.9780258,60.5565076 78.4814901,60.5565076 M78.4814901,52.2802936 C76.1140198,52.2802936 74.4825505,53.8640019 74.4825505,56.8481743 C74.4825505,59.8320319 76.1140198,61.4157402 78.4814901,61.4157402 C80.8489605,61.4157402 82.4804297,59.8320319 82.4804297,56.8481743 C82.4804297,53.8640019 80.8489605,52.2802936 78.4814901,52.2802936" id="Fill-6" fill="#B40032"></path>
                <path d="M99.1511703,52.4273298 L96.4521849,52.4273298 L96.4521849,53.1643996 L97.2863195,53.1643996 L97.2863195,59.6478432 L92.7721791,52.4273298 L90.6868425,52.4273298 L90.6868425,53.1643996 L91.1281287,53.1643996 C91.4351104,53.1643996 91.5209772,53.3359942 91.5209772,53.5450563 L91.5209772,60.1516072 C91.5209772,60.3603545 91.4351104,60.5322639 91.1281287,60.5322639 L90.6868425,60.5322639 L90.6868425,61.268704 L93.3977801,61.268704 L93.3977801,60.5322639 L92.5633309,60.5322639 L92.5633309,54.1832624 L97.0287191,61.268704 L98.3167211,61.268704 L98.3167211,53.5450563 C98.3167211,53.3359942 98.4029025,53.1643996 98.7095696,53.1643996 L99.1511703,53.1643996 L99.1511703,52.4273298" id="Fill-7" fill="#B40032"></path>
                <path d="M121.476224,52.2802936 C119.12102,52.2802936 117.439855,53.5941733 117.439855,56.8358951 C117.439855,60.0898961 119.12102,61.4157402 121.476224,61.4157402 C122.248711,61.4157402 123.206141,61.2812981 124.125828,61.0231191 L124.125828,59.4390959 L123.48796,59.4390959 C123.131912,60.1758509 122.850093,60.5565076 121.549824,60.5565076 C119.930622,60.5565076 118.593238,59.6229698 118.593238,56.8972913 C118.593238,54.1709832 119.905774,53.1395262 121.37809,53.1395262 C122.653826,53.1395262 123.131912,53.520183 123.48796,54.2572528 L124.125828,54.2572528 L124.125828,52.6732296 C123.206141,52.4153654 122.248711,52.2802936 121.476224,52.2802936" id="Fill-8" fill="#B40032"></path>
                <path d="M136.306647,60.5565076 C134.810111,60.5565076 133.460776,59.6106905 133.460776,56.8481743 C133.460776,54.0853433 134.810111,53.127247 136.306647,53.127247 C137.803183,53.127247 139.152833,54.0853433 139.152833,56.8481743 C139.152833,59.6106905 137.803183,60.5565076 136.306647,60.5565076 M136.306647,52.2802936 C133.939177,52.2802936 132.307393,53.8640019 132.307393,56.8481743 C132.307393,59.8320319 133.939177,61.4157402 136.306647,61.4157402 C138.674118,61.4157402 140.305587,59.8320319 140.305587,56.8481743 C140.305587,53.8640019 138.674118,52.2802936 136.306647,52.2802936" id="Fill-9" fill="#B40032"></path>
                <path d="M159.306998,52.4273298 L156.939527,52.4273298 L153.946456,60.1390131 L151.014718,52.4273298 L148.512,52.4273298 L148.512,53.1643996 L148.9536,53.1643996 C149.260267,53.1643996 149.346134,53.3359942 149.346134,53.5450563 L149.346134,60.1516072 C149.346134,60.3603545 149.260267,60.5322639 148.9536,60.5322639 L148.512,60.5322639 L148.512,61.268704 L151.222937,61.268704 L151.222937,60.5322639 L150.388803,60.5322639 L150.388803,53.9131189 L153.21014,61.268704 L154.485876,61.268704 L157.368861,53.8888753 L157.368861,60.5322639 L156.534727,60.5322639 L156.534727,61.268704 L159.306998,61.268704 L159.306998,60.5322639 L158.865397,60.5322639 C158.55873,60.5322639 158.472863,60.3603545 158.472863,60.1516072 L158.472863,53.5450563 C158.472863,53.3359942 158.55873,53.1643996 158.865397,53.1643996 L159.306998,53.1643996 L159.306998,52.4273298" id="Fill-10" fill="#B40032"></path>
                <path d="M169.536785,57.0200838 L169.536785,53.2871921 L171.131768,53.2871921 C172.555018,53.2871921 173.082171,54.1590188 173.082171,55.1287646 C173.082171,56.0868609 172.677371,57.0200838 171.156302,57.0200838 L169.536785,57.0200838 M171.561102,52.4273298 L167.598963,52.4273298 L167.598963,53.1643996 L168.040563,53.1643996 C168.347231,53.1643996 168.432783,53.3359942 168.432783,53.5450563 L168.432783,60.1516072 C168.432783,60.3603545 168.347231,60.5322639 168.040563,60.5322639 L167.598963,60.5322639 L167.598963,61.268704 L170.370919,61.268704 L170.370919,60.5322639 L169.536785,60.5322639 L169.536785,57.8793164 L171.389369,57.8793164 C173.29039,57.8793164 174.235554,56.5166346 174.235554,55.0796476 C174.235554,53.9008397 173.47502,52.4273298 171.561102,52.4273298" id="Fill-11" fill="#B40032"></path>
                <path d="M184.195789,57.1305971 L185.458943,53.1643996 L185.593876,53.1643996 L186.808593,57.1305971 L184.195789,57.1305971 M186.428325,52.4273298 L183.275473,52.4273298 L183.103739,53.1643996 L184.465341,53.1643996 L182.073652,60.3845981 C182.048804,60.4705528 181.950671,60.5322639 181.852537,60.5322639 L181.202717,60.5322639 L181.202717,61.268704 L184.122189,61.268704 L184.122189,60.5322639 L183.177654,60.5322639 L183.974674,57.9904594 L187.078145,57.9904594 L187.851261,60.5322639 L186.882193,60.5322639 L186.882193,61.268704 L189.899798,61.268704 L189.899798,60.5322639 L189.37233,60.5322639 C189.176063,60.5322639 189.11473,60.4582736 189.07793,60.3354811 L186.428325,52.4273298" id="Fill-12" fill="#B40032"></path>
                <path d="M205.944623,52.4273298 L203.245952,52.4273298 L203.245952,53.1643996 L204.080086,53.1643996 L204.080086,59.6478432 L199.565631,52.4273298 L197.47998,52.4273298 L197.47998,53.1643996 L197.92221,53.1643996 C198.228877,53.1643996 198.31443,53.3359942 198.31443,53.5450563 L198.31443,60.1516072 C198.31443,60.3603545 198.228877,60.5322639 197.92221,60.5322639 L197.47998,60.5322639 L197.47998,61.268704 L200.191232,61.268704 L200.191232,60.5322639 L199.357412,60.5322639 L199.357412,54.1832624 L203.822486,61.268704 L205.110803,61.268704 L205.110803,53.5450563 C205.110803,53.3359942 205.196355,53.1643996 205.503022,53.1643996 L205.944623,53.1643996 L205.944623,52.4273298" id="Fill-13" fill="#B40032"></path>
                <path d="M222.161181,52.4273298 L219.24171,52.4273298 L219.24171,53.1643996 L220.173978,53.1643996 L217.867841,57.0078046 L215.536856,53.1643996 L216.481706,53.1643996 L216.481706,52.4273298 L213.463787,52.4273298 L213.463787,53.1643996 L214.040321,53.1643996 C214.285655,53.1643996 214.371521,53.2871921 214.469655,53.4342282 L217.254507,57.8547579 L217.254507,60.1516072 C217.254507,60.3603545 217.16864,60.5322639 216.861973,60.5322639 L216.420058,60.5322639 L216.420058,61.268704 L219.192643,61.268704 L219.192643,60.5322639 L218.751043,60.5322639 C218.468909,60.5322639 218.358509,60.3968773 218.358509,60.2126886 L218.358509,57.8547579 L221.106246,53.4342282 C221.204694,53.2871921 221.290247,53.1643996 221.53558,53.1643996 L222.161181,53.1643996 L222.161181,52.4273298" id="Fill-14" fill="#B40032"></path>
                <path d="M15.6795185,21.7241692 L7.93357816,21.7241692 L7.93357816,37.4519983 L11.5044419,37.4519983 L11.5044419,41.1918168 L-0.0325334378,41.1918168 L-0.0325334378,37.4519983 L3.42824462,37.4519983 L3.42824462,3.6868967 L-0.0325334378,3.6868967 L-0.0325334378,-0.0529218034 L25.7328538,-0.0529218034 L25.7328538,10.1209084 L21.9974907,10.1209084 L21.9974907,3.6868967 L7.93357816,3.6868967 L7.93357816,17.9849804 L15.6795185,17.9849804 L15.6795185,14.0801791 L19.4151961,14.0801791 L19.4151961,25.6289704 L15.6795185,25.6289704 L15.6795185,21.7241692" id="Fill-19" fill="url(#linearGradient-2)"></path>
                <path d="M40.8406928,37.4519983 L44.4115565,37.4519983 L44.4115565,41.1918168 L32.8748958,41.1918168 L32.8748958,37.4519983 L36.3359884,37.4519983 L36.3359884,3.6868967 L32.8748958,3.6868967 L32.8748958,-0.0529218034 L44.4115565,-0.0529218034 L44.4115565,3.6868967 L40.8406928,3.6868967 L40.8406928,37.4519983" id="Fill-20" fill="url(#linearGradient-2)"></path>
                <path d="M83.471515,37.4519983 L83.471515,41.1918168 L72.59411,41.1918168 L72.59411,37.4519983 L75.5604462,37.4519983 L66.1660521,22.3290009 L60.3428361,25.9041516 L60.3428361,37.4519983 L63.9140144,37.4519983 L63.9140144,41.1918168 L52.3770391,41.1918168 L52.3770391,37.4519983 L55.8381317,37.4519983 L55.8381317,3.6868967 L52.3770391,3.6868967 L52.3770391,-0.0529218034 L71.9895825,-0.0529218034 C74.4070632,-0.0529218034 76.0363307,0.414634223 76.8789577,1.34911657 C77.7209556,2.28391377 78.1427409,4.10816941 78.1427409,6.82093892 L78.1427409,10.2304771 C78.1427409,11.6246442 78.0137834,12.7237944 77.7580702,13.5304466 C77.5014134,14.3374137 77.0440862,15.0615745 76.3845159,15.7022995 C75.7255747,16.3445986 74.8461477,16.995084 73.747493,17.6543852 C72.6488383,18.314631 71.2564122,19.158121 69.5724164,20.1845403 L80.3947786,37.4519983 L83.471515,37.4519983 L83.471515,37.4519983 Z M60.3428361,21.5037724 L74.1318491,12.9807141 L74.1318491,3.6868967 L60.3428361,3.6868967 L60.3428361,21.5037724 L60.3428361,21.5037724 Z" id="Fill-21" fill="url(#linearGradient-2)"></path>
                <path d="M107.313863,14.0801791 L107.313863,25.6289704 L103.578186,25.6289704 L103.578186,21.7241692 L95.8319309,21.7241692 L95.8319309,37.4519983 L109.895843,37.4519983 L109.895843,31.0179866 L113.631207,31.0179866 L113.631207,41.1918168 L87.8661338,41.1918168 L87.8661338,37.4519983 L91.3272264,37.4519983 L91.3272264,3.6868967 L87.8661338,3.6868967 L87.8661338,-0.0529218034 L113.631207,-0.0529218034 L113.631207,10.1209084 L109.895843,10.1209084 L109.895843,3.6868967 L95.8319309,3.6868967 L95.8319309,17.9849804 L103.578186,17.9849804 L103.578186,14.0801791 L107.313863,14.0801791" id="Fill-22" fill="url(#linearGradient-2)"></path>
                <path d="M137.693726,21.0094539 C138.425953,21.5232933 139.112573,21.9716433 139.754215,22.3563931 C140.394284,22.7411429 140.95289,23.1539146 141.429404,23.5937636 C142.381487,24.4740913 142.858001,25.5556098 142.858001,26.8386339 L142.858001,36.1875505 C142.858001,37.8373778 142.271402,39.1018256 141.099776,39.9818385 C140.110892,40.7891204 138.810938,41.1918168 137.199599,41.1918168 L119.674279,41.1918168 L119.674279,31.0179866 L123.629814,31.0179866 L123.629814,37.4519983 L138.462753,37.4519983 L138.462753,26.7290652 L124.069527,17.8744671 C122.786872,17.1421201 121.734768,16.3814364 120.910698,15.5927308 C120.086314,14.80434 119.674279,13.7325819 119.674279,12.3758823 L119.674279,5.44629271 C119.674279,3.28325574 120.186964,1.79904085 121.212648,0.992073787 C122.091445,0.295934814 123.610942,-0.0529218034 125.772395,-0.0529218034 L142.363559,-0.0529218034 L142.363559,10.1209084 L138.408025,10.1209084 L138.408025,3.6868967 L124.069527,3.6868967 L124.069527,12.485451 L137.693726,21.0094539" id="Fill-23" fill="url(#linearGradient-2)"></path>
                <path d="M158.514381,37.4519983 L162.085245,37.4519983 L162.085245,41.1918168 L150.548898,41.1918168 L150.548898,37.4519983 L154.009677,37.4519983 L154.009677,3.6868967 L150.548898,3.6868967 L150.548898,-0.0529218034 L162.085245,-0.0529218034 L162.085245,3.6868967 L158.514381,3.6868967 L158.514381,37.4519983" id="Fill-24" fill="url(#linearGradient-2)"></path>
                <path d="M189.169143,-0.0529218034 C191.878823,-0.0529218034 193.756255,0.542779208 194.799867,1.73386638 C195.843793,2.92621296 196.365914,4.73094774 196.365914,7.15090438 L196.365914,33.9883054 C196.365914,36.5172011 195.779629,38.3509023 194.607689,39.4868903 C193.434805,40.6241376 191.621852,41.1918168 189.169143,41.1918168 L169.776142,41.1918168 L169.776142,37.4519983 L173.237235,37.4519983 L173.237235,3.6868967 L169.776142,3.6868967 L169.776142,-0.0529218034 L189.169143,-0.0529218034 L189.169143,-0.0529218034 Z M177.742254,37.4519983 L191.860895,37.4519983 L191.860895,3.6868967 L177.742254,3.6868967 L177.742254,37.4519983 Z" id="Fill-25" fill="url(#linearGradient-2)"></path>
                <path d="M222.680157,14.0801791 L222.680157,25.6289704 L218.944479,25.6289704 L218.944479,21.7241692 L211.198224,21.7241692 L211.198224,37.4519983 L225.262451,37.4519983 L225.262451,31.0179866 L228.997814,31.0179866 L228.997814,41.1918168 L203.232427,41.1918168 L203.232427,37.4519983 L206.693834,37.4519983 L206.693834,3.6868967 L203.232427,3.6868967 L203.232427,-0.0529218034 L228.997814,-0.0529218034 L228.997814,10.1209084 L225.262451,10.1209084 L225.262451,3.6868967 L211.198224,3.6868967 L211.198224,17.9849804 L218.944479,17.9849804 L218.944479,14.0801791 L222.680157,14.0801791" id="Fill-26" fill="url(#linearGradient-2)"></path>
            </g>
        </g>
    </g>
</svg>