<?xml version="1.0" encoding="UTF-8" standalone="no"?>
<svg width="309px" height="252px" viewBox="0 0 309 252" version="1.1" xmlns="http://www.w3.org/2000/svg" xmlns:xlink="http://www.w3.org/1999/xlink" xmlns:sketch="http://www.bohemiancoding.com/sketch/ns">
    <!-- Generator: Sketch 3.5.2 (25235) - http://www.bohemiancoding.com/sketch -->
    <title>TwitterLogo_#55acee</title>
    <desc>Created with Sketch.</desc>
    <defs>
        <path id="path-1" d="M0.0678026906,0.928896861 L308.94296,0.928896861 L308.94296,251.932197 L0.0678026906,251.932197"></path>
    </defs>
    <g id="Page-1" stroke="none" stroke-width="1" fill="none" fill-rule="evenodd" sketch:type="MSPage">
        <g id="TwitterLogo_#55acee" sketch:type="MSLayerGroup">
            <mask id="mask-2" sketch:name="Clip 2" fill="white">
                <use xlink:href="#path-1"></use>
            </mask>
            <g id="Clip-2"></g>
            <path d="M308.94296,30.6502063 C297.575839,35.6913363 285.360054,39.0984215 272.538565,40.6307623 C285.625614,32.785991 295.675103,20.3645381 300.407731,5.56434081 C288.161435,12.827139 274.596377,18.1021883 260.158924,20.9453812 C248.596305,8.62676233 232.123641,0.928896861 213.893758,0.928896861 C178.888359,0.928896861 150.508413,29.307713 150.508413,64.310852 C150.508413,69.2785291 151.070045,74.1162511 152.150368,78.7550852 C99.4721973,76.1119103 52.768574,50.878009 21.5070135,12.5310673 C16.051157,21.8923587 12.9254529,32.7803408 12.9254529,44.3960717 C12.9254529,66.3856143 24.116287,85.7862242 41.1234619,97.1522152 C30.7326996,96.8233722 20.9600717,93.9722691 12.4135426,89.2249507 C12.4090224,89.4893812 12.4090224,89.7549417 12.4090224,90.0216323 C12.4090224,120.731731 34.2573094,146.349848 63.25313,152.171839 C57.934009,153.620556 52.3346368,154.394637 46.5533274,154.394637 C42.4693453,154.394637 38.4983677,153.997991 34.6290942,153.257812 C42.6942242,178.439731 66.1019731,196.764538 93.8377937,197.276448 C72.1454529,214.275713 44.8153184,224.408825 15.12,224.408825 C10.004287,224.408825 4.95863677,224.109363 0,223.524 C28.0499731,241.507534 61.3670852,252 97.1612556,252 C213.745722,252 277.498332,155.418457 277.498332,71.6606637 C277.498332,68.9123946 277.437309,66.1788161 277.315265,63.4610583 C289.698296,54.5246637 300.445022,43.3609507 308.94296,30.6502063" id="Fill-1" fill="#5D9EC9" sketch:type="MSShapeGroup" mask="url(#mask-2)"></path>
        </g>
    </g>
</svg>