<?xml version="1.0" encoding="UTF-8" standalone="no"?>
<svg width="289px" height="250px" viewBox="0 0 289 250" version="1.1" xmlns="http://www.w3.org/2000/svg" xmlns:xlink="http://www.w3.org/1999/xlink" xmlns:sketch="http://www.bohemiancoding.com/sketch/ns">
    <!-- Generator: Sketch 3.5.2 (25235) - http://www.bohemiancoding.com/sketch -->
    <title>Group 2</title>
    <desc>Created with Sketch.</desc>
    <defs></defs>
    <g id="Page-1" stroke="none" stroke-width="1" fill="none" fill-rule="evenodd" sketch:type="MSPage">
        <g id="Group-2" sketch:type="MSLayerGroup">
            <path d="M194.916667,1.2093254 C193.452381,0.47718254 192.25496,1.2172619 192.25496,2.85416667 L192.25496,204.159722 L280.401786,248.233135 C284.793651,250.429563 288.386905,248.208333 288.386905,243.297619 L288.386905,49.5198413 C288.386905,48.5545635 287.84127,47.671627 286.978175,47.2400794 L194.916667,1.2093254" id="Fill-6" fill="#32FC8D" sketch:type="MSShapeGroup"></path>
            <path d="M96.1329365,156.157738 L190.705357,2.47718254 C191.563492,1.08333333 193.463294,0.541666667 194.927579,1.27380952 L286.280754,46.9503968 C287.418651,47.5188492 287.824405,48.9414683 287.157738,50.0248016 L192.264881,204.224206 L96.1329365,156.157738" id="Fill-7" fill="#0BE370" sketch:type="MSShapeGroup"></path>
            <path d="M10.6478175,5.26587302 C4.79166667,2.33829365 2.80753968,4.50496032 6.2390873,10.0813492 L96.1329365,156.157738 L192.264881,204.224206 L96.7539683,49.0188492 C96.3482143,48.3581349 95.764881,47.8253968 95.0724206,47.4781746 L10.6478175,5.26587302" id="Fill-9" fill="#14C767" sketch:type="MSShapeGroup"></path>
            <path d="M96.1329365,243.362103 C96.1329365,248.272817 92.5386905,250.494048 88.1468254,248.297619 L5.32440476,206.885913 C2.39583333,205.421627 0,201.545635 0,198.271825 L0,5.89484127 C0,2.62103175 2.39583333,1.13988095 5.32440476,2.60416667 L94.9474206,47.4166667 C95.6736111,47.7797619 96.1329365,48.5218254 96.1329365,49.3343254 L96.1329365,243.362103" id="Fill-10" fill="#00AB6C" sketch:type="MSShapeGroup"></path>
        </g>
    </g>
</svg>