<?xml version="1.0" encoding="UTF-8" standalone="no"?>
<svg width="249px" height="250px" viewBox="0 0 249 250" version="1.1" xmlns="http://www.w3.org/2000/svg" xmlns:xlink="http://www.w3.org/1999/xlink" xmlns:sketch="http://www.bohemiancoding.com/sketch/ns">
    <!-- Generator: Sketch 3.5.2 (25235) - http://www.bohemiancoding.com/sketch -->
    <title>Group</title>
    <desc>Created with Sketch.</desc>
    <defs></defs>
    <g id="Page-1" stroke="none" stroke-width="1" fill="none" fill-rule="evenodd" sketch:type="MSPage">
        <g id="Group" sketch:type="MSLayerGroup" fill="#5A5A5A">
            <path d="M133.419689,0 C140.608808,1.29533679 147.927461,2.1373057 154.987047,3.88601036 C203.69171,15.9326425 240.608808,57.253886 247.474093,107.124352 C256.606218,173.445596 213.471503,234.067358 147.733161,247.215026 C143.005181,248.186528 138.147668,248.704663 133.354922,249.417098 L67.2927461,249.417098 C67.2927461,207.642487 67.2927461,165.867876 67.357513,124.158031 C67.357513,121.373057 67.6165803,118.523316 68.0699482,115.803109 C72.3445596,87.7590674 97.9274611,66.5803109 125.971503,67.6813472 C155.569948,68.9119171 179.339378,91.7746114 181.217617,120.919689 C184.002591,164.183938 139.96114,194.559585 100.518135,176.554404 C99.6761658,176.165803 98.8341969,175.841969 97.6036269,175.388601 C97.6036269,188.665803 97.5388601,201.489637 97.7331606,214.313472 C97.7331606,215.090674 99.2227979,216.256477 100.194301,216.515544 C112.823834,220.142487 125.712435,220.854922 138.665803,218.782383 C193.458549,209.974093 228.821244,157.966321 216.968912,103.950777 C206.023316,53.9507772 156.023316,21.2435233 106.217617,31.4119171 C61.1398964,40.4792746 29.6632124,78.9507772 29.5336788,125.064767 C29.4689119,165.414508 29.5336788,205.764249 29.5336788,246.11399 C29.5336788,247.215026 29.6632124,248.251295 29.7927461,249.352332 L0,249.352332 L0,115.284974 C0.388601036,112.759067 0.841968912,110.233161 1.16580311,107.642487 C8.03108808,57.3186528 44.753886,16.126943 94.0414508,3.82124352 C101.036269,2.07253886 108.225389,1.23056995 115.284974,0 L133.419689,0 L133.419689,0 Z" id="Shape" sketch:type="MSShapeGroup"></path>
        </g>
    </g>
</svg>